  0
SECTION
  2
BLOCKS
  0
ENDSEC
  0
SECTION
  2
ENTITIES
  0
LINE
  8
0
 10
2.94704
 20
10.3562
 11
2.34178
 21
10.0234
  0
LINE
  8
0
 10
2.34178
 20
10.0234
 11
1.69958
 21
9.76918
  0
LINE
  8
0
 10
1.69958
 20
9.76918
 11
1.03059
 21
9.59741
  0
LINE
  8
0
 10
1.03059
 20
9.59741
 11
0.345337
 21
9.51085
  0
LINE
  8
0
 10
0.345337
 20
9.51085
 11
-0.345337
 21
9.51085
  0
LINE
  8
0
 10
-0.345337
 20
9.51085
 11
-1.03059
 21
9.59741
  0
LINE
  8
0
 10
-1.03059
 20
9.59741
 11
-1.69958
 21
9.76918
  0
LINE
  8
0
 10
-1.69958
 20
9.76918
 11
-2.34178
 21
10.0234
  0
LINE
  8
0
 10
-2.34178
 20
10.0234
 11
-2.94704
 21
10.3562
  0
LINE
  8
0
 10
-2.94704
 20
10.3562
 11
-3.50583
 21
10.7622
  0
LINE
  8
0
 10
-3.50583
 20
10.7622
 11
-4.00932
 21
11.235
  0
LINE
  8
0
 10
-4.00932
 20
11.235
 11
-4.44958
 21
11.7672
  0
LINE
  8
0
 10
-4.44958
 20
11.7672
 11
-4.81967
 21
12.3503
  0
LINE
  8
0
 10
-4.81967
 20
12.3503
 11
-5.11377
 21
12.9753
  0
LINE
  8
0
 10
-5.11377
 20
12.9753
 11
-5.32719
 21
13.6322
  0
LINE
  8
0
 10
-5.32719
 20
13.6322
 11
-5.45662
 21
14.3107
  0
LINE
  8
0
 10
-5.45662
 20
14.3107
 11
-5.49937
 21
14.9901
  0
LINE
  8
0
 10
-5.49937
 20
14.9901
 11
-9.50061
 21
14.9901
  0
LINE
  8
0
 10
-9.50061
 20
14.9901
 11
-9.54337
 21
14.3107
  0
LINE
  8
0
 10
-9.54337
 20
14.3107
 11
-9.67279
 21
13.6322
  0
LINE
  8
0
 10
-9.67279
 20
13.6322
 11
-9.88622
 21
12.9753
  0
LINE
  8
0
 10
-9.88622
 20
12.9753
 11
-10.1803
 21
12.3503
  0
LINE
  8
0
 10
-10.1803
 20
12.3503
 11
-10.5504
 21
11.7672
  0
LINE
  8
0
 10
-10.5504
 20
11.7672
 11
-10.9907
 21
11.235
  0
LINE
  8
0
 10
-10.9907
 20
11.235
 11
-11.4942
 21
10.7622
  0
LINE
  8
0
 10
-11.4942
 20
10.7622
 11
-12.0529
 21
10.3562
  0
LINE
  8
0
 10
-12.0529
 20
10.3562
 11
-12.6582
 21
10.0234
  0
LINE
  8
0
 10
-12.6582
 20
10.0234
 11
-13.3004
 21
9.76918
  0
LINE
  8
0
 10
-13.3004
 20
9.76918
 11
-13.9694
 21
9.59741
  0
LINE
  8
0
 10
-13.9694
 20
9.59741
 11
-14.6546
 21
9.51085
  0
LINE
  8
0
 10
-14.6546
 20
9.51085
 11
-15
 21
9.51085
  0
LINE
  8
0
 10
-15
 20
9.51085
 11
-15
 21
5.48914
  0
LINE
  8
0
 10
-15
 20
5.48914
 11
-14.6546
 21
5.48914
  0
LINE
  8
0
 10
-14.6546
 20
5.48914
 11
-13.9694
 21
5.40257
  0
LINE
  8
0
 10
-13.9694
 20
5.40257
 11
-13.3004
 21
5.2308
  0
LINE
  8
0
 10
-13.3004
 20
5.2308
 11
-12.6582
 21
4.97655
  0
LINE
  8
0
 10
-12.6582
 20
4.97655
 11
-12.0529
 21
4.6438
  0
LINE
  8
0
 10
-12.0529
 20
4.6438
 11
-11.4942
 21
4.23781
  0
LINE
  8
0
 10
-11.4942
 20
4.23781
 11
-10.9907
 21
3.765
  0
LINE
  8
0
 10
-10.9907
 20
3.765
 11
-10.5504
 21
3.23282
  0
LINE
  8
0
 10
-10.5504
 20
3.23282
 11
-10.1803
 21
2.64964
  0
LINE
  8
0
 10
-10.1803
 20
2.64964
 11
-9.88622
 21
2.02467
  0
LINE
  8
0
 10
-9.88622
 20
2.02467
 11
-9.67279
 21
1.36778
  0
LINE
  8
0
 10
-9.67279
 20
1.36778
 11
-9.54337
 21
0.689331
  0
LINE
  8
0
 10
-9.54337
 20
0.689331
 11
-9.5
 21
0
  0
LINE
  8
0
 10
-9.5
 20
0
 11
-9.54337
 21
-0.689331
  0
LINE
  8
0
 10
-9.54337
 20
-0.689331
 11
-9.67279
 21
-1.36778
  0
LINE
  8
0
 10
-9.67279
 20
-1.36778
 11
-9.88622
 21
-2.02467
  0
LINE
  8
0
 10
-9.88622
 20
-2.02467
 11
-10.1803
 21
-2.64964
  0
LINE
  8
0
 10
-10.1803
 20
-2.64964
 11
-10.5504
 21
-3.23282
  0
LINE
  8
0
 10
-10.5504
 20
-3.23282
 11
-10.9907
 21
-3.765
  0
LINE
  8
0
 10
-10.9907
 20
-3.765
 11
-11.4942
 21
-4.23781
  0
LINE
  8
0
 10
-11.4942
 20
-4.23781
 11
-12.0529
 21
-4.6438
  0
LINE
  8
0
 10
-12.0529
 20
-4.6438
 11
-12.6582
 21
-4.97655
  0
LINE
  8
0
 10
-12.6582
 20
-4.97655
 11
-13.3004
 21
-5.2308
  0
LINE
  8
0
 10
-13.3004
 20
-5.2308
 11
-13.9694
 21
-5.40257
  0
LINE
  8
0
 10
-13.9694
 20
-5.40257
 11
-14.6546
 21
-5.48914
  0
LINE
  8
0
 10
-14.6546
 20
-5.48914
 11
-15
 21
-5.48914
  0
LINE
  8
0
 10
-15
 20
-5.48914
 11
-15
 21
-9.51085
  0
LINE
  8
0
 10
-15
 20
-9.51085
 11
-14.6546
 21
-9.51085
  0
LINE
  8
0
 10
-14.6546
 20
-9.51085
 11
-13.9694
 21
-9.59741
  0
LINE
  8
0
 10
-13.9694
 20
-9.59741
 11
-13.3004
 21
-9.76918
  0
LINE
  8
0
 10
-13.3004
 20
-9.76918
 11
-12.6582
 21
-10.0234
  0
LINE
  8
0
 10
-12.6582
 20
-10.0234
 11
-12.0529
 21
-10.3562
  0
LINE
  8
0
 10
-12.0529
 20
-10.3562
 11
-11.4942
 21
-10.7622
  0
LINE
  8
0
 10
-11.4942
 20
-10.7622
 11
-10.9907
 21
-11.235
  0
LINE
  8
0
 10
-10.9907
 20
-11.235
 11
-10.5504
 21
-11.7672
  0
LINE
  8
0
 10
-10.5504
 20
-11.7672
 11
-10.1803
 21
-12.3503
  0
LINE
  8
0
 10
-10.1803
 20
-12.3503
 11
-9.88622
 21
-12.9753
  0
LINE
  8
0
 10
-9.88622
 20
-12.9753
 11
-9.67279
 21
-13.6322
  0
LINE
  8
0
 10
-9.67279
 20
-13.6322
 11
-9.54337
 21
-14.3107
  0
LINE
  8
0
 10
-9.54337
 20
-14.3107
 11
-9.50061
 21
-14.9901
  0
LINE
  8
0
 10
-9.50061
 20
-14.9901
 11
-5.49937
 21
-14.9901
  0
LINE
  8
0
 10
-5.49937
 20
-14.9901
 11
-5.45662
 21
-14.3107
  0
LINE
  8
0
 10
-5.45662
 20
-14.3107
 11
-5.32719
 21
-13.6322
  0
LINE
  8
0
 10
-5.32719
 20
-13.6322
 11
-5.11377
 21
-12.9753
  0
LINE
  8
0
 10
-5.11377
 20
-12.9753
 11
-4.81967
 21
-12.3503
  0
LINE
  8
0
 10
-4.81967
 20
-12.3503
 11
-4.44958
 21
-11.7672
  0
LINE
  8
0
 10
-4.44958
 20
-11.7672
 11
-4.00932
 21
-11.235
  0
LINE
  8
0
 10
-4.00932
 20
-11.235
 11
-3.50583
 21
-10.7622
  0
LINE
  8
0
 10
-3.50583
 20
-10.7622
 11
-2.94704
 21
-10.3562
  0
LINE
  8
0
 10
-2.94704
 20
-10.3562
 11
-2.34178
 21
-10.0234
  0
LINE
  8
0
 10
-2.34178
 20
-10.0234
 11
-1.69958
 21
-9.76918
  0
LINE
  8
0
 10
-1.69958
 20
-9.76918
 11
-1.03059
 21
-9.59741
  0
LINE
  8
0
 10
-1.03059
 20
-9.59741
 11
-0.345337
 21
-9.51085
  0
LINE
  8
0
 10
-0.345337
 20
-9.51085
 11
0.345337
 21
-9.51085
  0
LINE
  8
0
 10
0.345337
 20
-9.51085
 11
1.03059
 21
-9.59741
  0
LINE
  8
0
 10
1.03059
 20
-9.59741
 11
1.69958
 21
-9.76918
  0
LINE
  8
0
 10
1.69958
 20
-9.76918
 11
2.34178
 21
-10.0234
  0
LINE
  8
0
 10
2.34178
 20
-10.0234
 11
2.94704
 21
-10.3562
  0
LINE
  8
0
 10
2.94704
 20
-10.3562
 11
3.50583
 21
-10.7622
  0
LINE
  8
0
 10
3.50583
 20
-10.7622
 11
4.00932
 21
-11.235
  0
LINE
  8
0
 10
4.00932
 20
-11.235
 11
4.44958
 21
-11.7672
  0
LINE
  8
0
 10
4.44958
 20
-11.7672
 11
4.81967
 21
-12.3503
  0
LINE
  8
0
 10
4.81967
 20
-12.3503
 11
5.11377
 21
-12.9753
  0
LINE
  8
0
 10
5.11377
 20
-12.9753
 11
5.32719
 21
-13.6322
  0
LINE
  8
0
 10
5.32719
 20
-13.6322
 11
5.45662
 21
-14.3107
  0
LINE
  8
0
 10
5.45662
 20
-14.3107
 11
5.49937
 21
-14.9901
  0
LINE
  8
0
 10
5.49937
 20
-14.9901
 11
9.50061
 21
-14.9901
  0
LINE
  8
0
 10
9.50061
 20
-14.9901
 11
9.54337
 21
-14.3107
  0
LINE
  8
0
 10
9.54337
 20
-14.3107
 11
9.67279
 21
-13.6322
  0
LINE
  8
0
 10
9.67279
 20
-13.6322
 11
9.88622
 21
-12.9753
  0
LINE
  8
0
 10
9.88622
 20
-12.9753
 11
10.1803
 21
-12.3503
  0
LINE
  8
0
 10
10.1803
 20
-12.3503
 11
10.5504
 21
-11.7672
  0
LINE
  8
0
 10
10.5504
 20
-11.7672
 11
10.9907
 21
-11.235
  0
LINE
  8
0
 10
10.9907
 20
-11.235
 11
11.4942
 21
-10.7622
  0
LINE
  8
0
 10
11.4942
 20
-10.7622
 11
12.0529
 21
-10.3562
  0
LINE
  8
0
 10
12.0529
 20
-10.3562
 11
12.6582
 21
-10.0234
  0
LINE
  8
0
 10
12.6582
 20
-10.0234
 11
13.3004
 21
-9.76918
  0
LINE
  8
0
 10
13.3004
 20
-9.76918
 11
13.9694
 21
-9.59741
  0
LINE
  8
0
 10
13.9694
 20
-9.59741
 11
14.6546
 21
-9.51085
  0
LINE
  8
0
 10
14.6546
 20
-9.51085
 11
15
 21
-9.51085
  0
LINE
  8
0
 10
15
 20
-9.51085
 11
15
 21
-5.48914
  0
LINE
  8
0
 10
15
 20
-5.48914
 11
14.6546
 21
-5.48914
  0
LINE
  8
0
 10
14.6546
 20
-5.48914
 11
13.9694
 21
-5.40257
  0
LINE
  8
0
 10
13.9694
 20
-5.40257
 11
13.3004
 21
-5.2308
  0
LINE
  8
0
 10
13.3004
 20
-5.2308
 11
12.6582
 21
-4.97655
  0
LINE
  8
0
 10
12.6582
 20
-4.97655
 11
12.0529
 21
-4.6438
  0
LINE
  8
0
 10
12.0529
 20
-4.6438
 11
11.4942
 21
-4.23781
  0
LINE
  8
0
 10
11.4942
 20
-4.23781
 11
10.9907
 21
-3.765
  0
LINE
  8
0
 10
10.9907
 20
-3.765
 11
10.5504
 21
-3.23282
  0
LINE
  8
0
 10
10.5504
 20
-3.23282
 11
10.1803
 21
-2.64964
  0
LINE
  8
0
 10
10.1803
 20
-2.64964
 11
9.88622
 21
-2.02467
  0
LINE
  8
0
 10
9.88622
 20
-2.02467
 11
9.67279
 21
-1.36778
  0
LINE
  8
0
 10
9.67279
 20
-1.36778
 11
9.54337
 21
-0.689331
  0
LINE
  8
0
 10
9.54337
 20
-0.689331
 11
9.5
 21
0
  0
LINE
  8
0
 10
9.5
 20
0
 11
9.54337
 21
0.689331
  0
LINE
  8
0
 10
9.54337
 20
0.689331
 11
9.67279
 21
1.36778
  0
LINE
  8
0
 10
9.67279
 20
1.36778
 11
9.88622
 21
2.02467
  0
LINE
  8
0
 10
9.88622
 20
2.02467
 11
10.1803
 21
2.64964
  0
LINE
  8
0
 10
10.1803
 20
2.64964
 11
10.5504
 21
3.23282
  0
LINE
  8
0
 10
10.5504
 20
3.23282
 11
10.9907
 21
3.765
  0
LINE
  8
0
 10
10.9907
 20
3.765
 11
11.4942
 21
4.23781
  0
LINE
  8
0
 10
11.4942
 20
4.23781
 11
12.0529
 21
4.6438
  0
LINE
  8
0
 10
12.0529
 20
4.6438
 11
12.6582
 21
4.97655
  0
LINE
  8
0
 10
12.6582
 20
4.97655
 11
13.3004
 21
5.2308
  0
LINE
  8
0
 10
13.3004
 20
5.2308
 11
13.9694
 21
5.40257
  0
LINE
  8
0
 10
13.9694
 20
5.40257
 11
14.6546
 21
5.48914
  0
LINE
  8
0
 10
14.6546
 20
5.48914
 11
15
 21
5.48914
  0
LINE
  8
0
 10
15
 20
5.48914
 11
15
 21
9.51085
  0
LINE
  8
0
 10
15
 20
9.51085
 11
14.6546
 21
9.51085
  0
LINE
  8
0
 10
14.6546
 20
9.51085
 11
13.9694
 21
9.59741
  0
LINE
  8
0
 10
13.9694
 20
9.59741
 11
13.3004
 21
9.76918
  0
LINE
  8
0
 10
13.3004
 20
9.76918
 11
12.6582
 21
10.0234
  0
LINE
  8
0
 10
12.6582
 20
10.0234
 11
12.0529
 21
10.3562
  0
LINE
  8
0
 10
12.0529
 20
10.3562
 11
11.4942
 21
10.7622
  0
LINE
  8
0
 10
11.4942
 20
10.7622
 11
10.9907
 21
11.235
  0
LINE
  8
0
 10
10.9907
 20
11.235
 11
10.5504
 21
11.7672
  0
LINE
  8
0
 10
10.5504
 20
11.7672
 11
10.1803
 21
12.3503
  0
LINE
  8
0
 10
10.1803
 20
12.3503
 11
9.88622
 21
12.9753
  0
LINE
  8
0
 10
9.88622
 20
12.9753
 11
9.67279
 21
13.6322
  0
LINE
  8
0
 10
9.67279
 20
13.6322
 11
9.54337
 21
14.3107
  0
LINE
  8
0
 10
9.54337
 20
14.3107
 11
9.50061
 21
14.9901
  0
LINE
  8
0
 10
9.50061
 20
14.9901
 11
5.49937
 21
14.9901
  0
LINE
  8
0
 10
5.49937
 20
14.9901
 11
5.45662
 21
14.3107
  0
LINE
  8
0
 10
5.45662
 20
14.3107
 11
5.32719
 21
13.6322
  0
LINE
  8
0
 10
5.32719
 20
13.6322
 11
5.11377
 21
12.9753
  0
LINE
  8
0
 10
5.11377
 20
12.9753
 11
4.81967
 21
12.3503
  0
LINE
  8
0
 10
4.81967
 20
12.3503
 11
4.44958
 21
11.7672
  0
LINE
  8
0
 10
4.44958
 20
11.7672
 11
4.00932
 21
11.235
  0
LINE
  8
0
 10
4.00932
 20
11.235
 11
3.50583
 21
10.7622
  0
LINE
  8
0
 10
3.50583
 20
10.7622
 11
2.94704
 21
10.3562
  0
LINE
  8
0
 10
-0.345337
 20
-5.48914
 11
-1.03059
 21
-5.40257
  0
LINE
  8
0
 10
-1.03059
 20
-5.40257
 11
-1.69958
 21
-5.2308
  0
LINE
  8
0
 10
-1.69958
 20
-5.2308
 11
-2.34178
 21
-4.97655
  0
LINE
  8
0
 10
-2.34178
 20
-4.97655
 11
-2.94704
 21
-4.6438
  0
LINE
  8
0
 10
-2.94704
 20
-4.6438
 11
-3.50583
 21
-4.23781
  0
LINE
  8
0
 10
-3.50583
 20
-4.23781
 11
-4.00932
 21
-3.765
  0
LINE
  8
0
 10
-4.00932
 20
-3.765
 11
-4.44958
 21
-3.23282
  0
LINE
  8
0
 10
-4.44958
 20
-3.23282
 11
-4.81967
 21
-2.64964
  0
LINE
  8
0
 10
-4.81967
 20
-2.64964
 11
-5.11377
 21
-2.02467
  0
LINE
  8
0
 10
-5.11377
 20
-2.02467
 11
-5.32719
 21
-1.36778
  0
LINE
  8
0
 10
-5.32719
 20
-1.36778
 11
-5.45662
 21
-0.689331
  0
LINE
  8
0
 10
-5.45662
 20
-0.689331
 11
-5.5
 21
0
  0
LINE
  8
0
 10
-5.5
 20
0
 11
-5.45662
 21
0.689331
  0
LINE
  8
0
 10
-5.45662
 20
0.689331
 11
-5.32719
 21
1.36778
  0
LINE
  8
0
 10
-5.32719
 20
1.36778
 11
-5.11377
 21
2.02467
  0
LINE
  8
0
 10
-5.11377
 20
2.02467
 11
-4.81967
 21
2.64964
  0
LINE
  8
0
 10
-4.81967
 20
2.64964
 11
-4.44958
 21
3.23282
  0
LINE
  8
0
 10
-4.44958
 20
3.23282
 11
-4.00932
 21
3.765
  0
LINE
  8
0
 10
-4.00932
 20
3.765
 11
-3.50583
 21
4.23781
  0
LINE
  8
0
 10
-3.50583
 20
4.23781
 11
-2.94704
 21
4.6438
  0
LINE
  8
0
 10
-2.94704
 20
4.6438
 11
-2.34178
 21
4.97655
  0
LINE
  8
0
 10
-2.34178
 20
4.97655
 11
-1.69958
 21
5.2308
  0
LINE
  8
0
 10
-1.69958
 20
5.2308
 11
-1.03059
 21
5.40257
  0
LINE
  8
0
 10
-1.03059
 20
5.40257
 11
-0.345337
 21
5.48914
  0
LINE
  8
0
 10
-0.345337
 20
5.48914
 11
0.345337
 21
5.48914
  0
LINE
  8
0
 10
0.345337
 20
5.48914
 11
1.03059
 21
5.40257
  0
LINE
  8
0
 10
1.03059
 20
5.40257
 11
1.69958
 21
5.2308
  0
LINE
  8
0
 10
1.69958
 20
5.2308
 11
2.34178
 21
4.97655
  0
LINE
  8
0
 10
2.34178
 20
4.97655
 11
2.94704
 21
4.6438
  0
LINE
  8
0
 10
2.94704
 20
4.6438
 11
3.50583
 21
4.23781
  0
LINE
  8
0
 10
3.50583
 20
4.23781
 11
4.00932
 21
3.765
  0
LINE
  8
0
 10
4.00932
 20
3.765
 11
4.44958
 21
3.23282
  0
LINE
  8
0
 10
4.44958
 20
3.23282
 11
4.81967
 21
2.64964
  0
LINE
  8
0
 10
4.81967
 20
2.64964
 11
5.11377
 21
2.02467
  0
LINE
  8
0
 10
5.11377
 20
2.02467
 11
5.32719
 21
1.36778
  0
LINE
  8
0
 10
5.32719
 20
1.36778
 11
5.45662
 21
0.689331
  0
LINE
  8
0
 10
5.45662
 20
0.689331
 11
5.5
 21
0
  0
LINE
  8
0
 10
5.5
 20
0
 11
5.45662
 21
-0.689331
  0
LINE
  8
0
 10
5.45662
 20
-0.689331
 11
5.32719
 21
-1.36778
  0
LINE
  8
0
 10
5.32719
 20
-1.36778
 11
5.11377
 21
-2.02467
  0
LINE
  8
0
 10
5.11377
 20
-2.02467
 11
4.81967
 21
-2.64964
  0
LINE
  8
0
 10
4.81967
 20
-2.64964
 11
4.44958
 21
-3.23282
  0
LINE
  8
0
 10
4.44958
 20
-3.23282
 11
4.00932
 21
-3.765
  0
LINE
  8
0
 10
4.00932
 20
-3.765
 11
3.50583
 21
-4.23781
  0
LINE
  8
0
 10
3.50583
 20
-4.23781
 11
2.94704
 21
-4.6438
  0
LINE
  8
0
 10
2.94704
 20
-4.6438
 11
2.34178
 21
-4.97655
  0
LINE
  8
0
 10
2.34178
 20
-4.97655
 11
1.69958
 21
-5.2308
  0
LINE
  8
0
 10
1.69958
 20
-5.2308
 11
1.03059
 21
-5.40257
  0
LINE
  8
0
 10
1.03059
 20
-5.40257
 11
0.345337
 21
-5.48914
  0
LINE
  8
0
 10
0.345337
 20
-5.48914
 11
-0.345337
 21
-5.48914
  0
ENDSEC
  0
SECTION
  2
OBJECTS
  0
DICTIONARY
  0
ENDSEC
  0
EOF
