<?xml version="1.0" standalone="no"?>
<!DOCTYPE svg PUBLIC "-//W3C//DTD SVG 1.1//EN" "http://www.w3.org/Graphics/SVG/1.1/DTD/svg11.dtd">
<svg width="30mm" height="30mm" viewBox="-15 -15 30 30" xmlns="http://www.w3.org/2000/svg" version="1.1">
<title>OpenSCAD Model</title>
<path d="
M 2.94704,-10.3562 L 2.34178,-10.0234 L 1.69958,-9.76918 L 1.03059,-9.59741 L 0.345337,-9.51085 L -0.345337,-9.51085
 L -1.03059,-9.59741 L -1.69958,-9.76918 L -2.34178,-10.0234 L -2.94704,-10.3562 L -3.50583,-10.7622 L -4.00932,-11.235
 L -4.44958,-11.7672 L -4.81967,-12.3503 L -5.11377,-12.9753 L -5.32719,-13.6322 L -5.45662,-14.3107 L -5.49937,-14.9901
 L -9.50061,-14.9901 L -9.54337,-14.3107 L -9.67279,-13.6322 L -9.88622,-12.9753 L -10.1803,-12.3503 L -10.5504,-11.7672
 L -10.9907,-11.235 L -11.4942,-10.7622 L -12.0529,-10.3562 L -12.6582,-10.0234 L -13.3004,-9.76918 L -13.9694,-9.59741
 L -14.6546,-9.51085 L -15,-9.51085 L -15,-5.48914 L -14.6546,-5.48914 L -13.9694,-5.40257 L -13.3004,-5.2308
 L -12.6582,-4.97655 L -12.0529,-4.6438 L -11.4942,-4.23781 L -10.9907,-3.765 L -10.5504,-3.23282 L -10.1803,-2.64964
 L -9.88622,-2.02467 L -9.67279,-1.36778 L -9.54337,-0.689331 L -9.5,-0 L -9.54337,0.689331 L -9.67279,1.36778
 L -9.88622,2.02467 L -10.1803,2.64964 L -10.5504,3.23282 L -10.9907,3.765 L -11.4942,4.23781 L -12.0529,4.6438
 L -12.6582,4.97655 L -13.3004,5.2308 L -13.9694,5.40257 L -14.6546,5.48914 L -15,5.48914 L -15,9.51085
 L -14.6546,9.51085 L -13.9694,9.59741 L -13.3004,9.76918 L -12.6582,10.0234 L -12.0529,10.3562 L -11.4942,10.7622
 L -10.9907,11.235 L -10.5504,11.7672 L -10.1803,12.3503 L -9.88622,12.9753 L -9.67279,13.6322 L -9.54337,14.3107
 L -9.50061,14.9901 L -5.49937,14.9901 L -5.45662,14.3107 L -5.32719,13.6322 L -5.11377,12.9753 L -4.81967,12.3503
 L -4.44958,11.7672 L -4.00932,11.235 L -3.50583,10.7622 L -2.94704,10.3562 L -2.34178,10.0234 L -1.69958,9.76918
 L -1.03059,9.59741 L -0.345337,9.51085 L 0.345337,9.51085 L 1.03059,9.59741 L 1.69958,9.76918 L 2.34178,10.0234
 L 2.94704,10.3562 L 3.50583,10.7622 L 4.00932,11.235 L 4.44958,11.7672 L 4.81967,12.3503 L 5.11377,12.9753
 L 5.32719,13.6322 L 5.45662,14.3107 L 5.49937,14.9901 L 9.50061,14.9901 L 9.54337,14.3107 L 9.67279,13.6322
 L 9.88622,12.9753 L 10.1803,12.3503 L 10.5504,11.7672 L 10.9907,11.235 L 11.4942,10.7622 L 12.0529,10.3562
 L 12.6582,10.0234 L 13.3004,9.76918 L 13.9694,9.59741 L 14.6546,9.51085 L 15,9.51085 L 15,5.48914
 L 14.6546,5.48914 L 13.9694,5.40257 L 13.3004,5.2308 L 12.6582,4.97655 L 12.0529,4.6438 L 11.4942,4.23781
 L 10.9907,3.765 L 10.5504,3.23282 L 10.1803,2.64964 L 9.88622,2.02467 L 9.67279,1.36778 L 9.54337,0.689331
 L 9.5,-0 L 9.54337,-0.689331 L 9.67279,-1.36778 L 9.88622,-2.02467 L 10.1803,-2.64964 L 10.5504,-3.23282
 L 10.9907,-3.765 L 11.4942,-4.23781 L 12.0529,-4.6438 L 12.6582,-4.97655 L 13.3004,-5.2308 L 13.9694,-5.40257
 L 14.6546,-5.48914 L 15,-5.48914 L 15,-9.51085 L 14.6546,-9.51085 L 13.9694,-9.59741 L 13.3004,-9.76918
 L 12.6582,-10.0234 L 12.0529,-10.3562 L 11.4942,-10.7622 L 10.9907,-11.235 L 10.5504,-11.7672 L 10.1803,-12.3503
 L 9.88622,-12.9753 L 9.67279,-13.6322 L 9.54337,-14.3107 L 9.50061,-14.9901 L 5.49937,-14.9901 L 5.45662,-14.3107
 L 5.32719,-13.6322 L 5.11377,-12.9753 L 4.81967,-12.3503 L 4.44958,-11.7672 L 4.00932,-11.235 L 3.50583,-10.7622
 z
M -0.345337,5.48914 L -1.03059,5.40257 L -1.69958,5.2308 L -2.34178,4.97655 L -2.94704,4.6438 L -3.50583,4.23781
 L -4.00932,3.765 L -4.44958,3.23282 L -4.81967,2.64964 L -5.11377,2.02467 L -5.32719,1.36778 L -5.45662,0.689331
 L -5.5,-0 L -5.45662,-0.689331 L -5.32719,-1.36778 L -5.11377,-2.02467 L -4.81967,-2.64964 L -4.44958,-3.23282
 L -4.00932,-3.765 L -3.50583,-4.23781 L -2.94704,-4.6438 L -2.34178,-4.97655 L -1.69958,-5.2308 L -1.03059,-5.40257
 L -0.345337,-5.48914 L 0.345337,-5.48914 L 1.03059,-5.40257 L 1.69958,-5.2308 L 2.34178,-4.97655 L 2.94704,-4.6438
 L 3.50583,-4.23781 L 4.00932,-3.765 L 4.44958,-3.23282 L 4.81967,-2.64964 L 5.11377,-2.02467 L 5.32719,-1.36778
 L 5.45662,-0.689331 L 5.5,-0 L 5.45662,0.689331 L 5.32719,1.36778 L 5.11377,2.02467 L 4.81967,2.64964
 L 4.44958,3.23282 L 4.00932,3.765 L 3.50583,4.23781 L 2.94704,4.6438 L 2.34178,4.97655 L 1.69958,5.2308
 L 1.03059,5.40257 L 0.345337,5.48914 z
" stroke="black" fill="lightgray" stroke-width="0.5"/>
</svg>
