<?xml version="1.0" standalone="no"?>
<!DOCTYPE svg PUBLIC "-//W3C//DTD SVG 1.1//EN" "http://www.w3.org/Graphics/SVG/1.1/DTD/svg11.dtd">
<svg width="60mm" height="60mm" viewBox="-30 -30 60 60" xmlns="http://www.w3.org/2000/svg" version="1.1">
<title>OpenSCAD Model</title>
<path d="
M -20.4566,29.3107 L -20.3272,28.6322 L -20.1138,27.9753 L -19.8197,27.3503 L -19.4496,26.7672 L -19.0093,26.235
 L -18.5058,25.7622 L -17.947,25.3562 L -17.3418,25.0234 L -16.6996,24.7692 L -16.0306,24.5974 L -15.3453,24.5108
 L -14.6546,24.5108 L -13.9694,24.5974 L -13.3004,24.7692 L -12.6582,25.0234 L -12.0529,25.3562 L -11.4942,25.7622
 L -10.9907,26.235 L -10.5504,26.7672 L -10.1803,27.3503 L -9.88622,27.9753 L -9.67279,28.6322 L -9.54337,29.3107
 L -9.50061,29.9901 L -5.49937,29.9901 L -5.45662,29.3107 L -5.32719,28.6322 L -5.11377,27.9753 L -4.81967,27.3503
 L -4.44958,26.7672 L -4.00932,26.235 L -3.50583,25.7622 L -2.94704,25.3562 L -2.34178,25.0234 L -1.69958,24.7692
 L -1.03059,24.5974 L -0.345337,24.5108 L 0.345337,24.5108 L 1.03059,24.5974 L 1.69958,24.7692 L 2.34178,25.0234
 L 2.94704,25.3562 L 3.50583,25.7622 L 4.00932,26.235 L 4.44958,26.7672 L 4.81967,27.3503 L 5.11377,27.9753
 L 5.32719,28.6322 L 5.45662,29.3107 L 5.49937,29.9901 L 9.50061,29.9901 L 9.54337,29.3107 L 9.67279,28.6322
 L 9.88622,27.9753 L 10.1803,27.3503 L 10.5504,26.7672 L 10.9907,26.235 L 11.4942,25.7622 L 12.0529,25.3562
 L 12.6582,25.0234 L 13.3004,24.7692 L 13.9694,24.5974 L 14.6546,24.5108 L 15.3453,24.5108 L 16.0306,24.5974
 L 16.6996,24.7692 L 17.3418,25.0234 L 17.947,25.3562 L 18.5058,25.7622 L 19.0093,26.235 L 19.4496,26.7672
 L 19.8197,27.3503 L 20.1138,27.9753 L 20.3272,28.6322 L 20.4566,29.3107 L 20.4994,29.9901 L 24.5006,29.9901
 L 24.5434,29.3107 L 24.6728,28.6322 L 24.8862,27.9753 L 25.1803,27.3503 L 25.5504,26.7672 L 25.9907,26.235
 L 26.4942,25.7622 L 27.0529,25.3562 L 27.6582,25.0234 L 28.3004,24.7692 L 28.9694,24.5974 L 29.6546,24.5108
 L 30,24.5108 L 30,20.4891 L 29.6546,20.4891 L 28.9694,20.4026 L 28.3004,20.2308 L 27.6582,19.9765
 L 27.0529,19.6438 L 26.4942,19.2378 L 25.9907,18.765 L 25.5504,18.2328 L 25.1803,17.6496 L 24.8862,17.0247
 L 24.6728,16.3678 L 24.5434,15.6893 L 24.5,15 L 24.5434,14.3107 L 24.6728,13.6322 L 24.8862,12.9753
 L 25.1803,12.3503 L 25.5504,11.7672 L 25.9907,11.235 L 26.4942,10.7622 L 27.0529,10.3562 L 27.6582,10.0234
 L 28.3004,9.76918 L 28.9694,9.59741 L 29.6546,9.51085 L 30,9.51085 L 30,5.48914 L 29.6546,5.48914
 L 28.9694,5.40257 L 28.3004,5.2308 L 27.6582,4.97655 L 27.0529,4.6438 L 26.4942,4.23781 L 25.9907,3.765
 L 25.5504,3.23282 L 25.1803,2.64964 L 24.8862,2.02467 L 24.6728,1.36778 L 24.5434,0.689331 L 24.5,-0
 L 24.5434,-0.689331 L 24.6728,-1.36778 L 24.8862,-2.02467 L 25.1803,-2.64964 L 25.5504,-3.23282 L 25.9907,-3.765
 L 26.4942,-4.23781 L 27.0529,-4.6438 L 27.6582,-4.97655 L 28.3004,-5.2308 L 28.9694,-5.40257 L 29.6546,-5.48914
 L 30,-5.48914 L 30,-9.51085 L 29.6546,-9.51085 L 28.9694,-9.59741 L 28.3004,-9.76918 L 27.6582,-10.0234
 L 27.0529,-10.3562 L 26.4942,-10.7622 L 25.9907,-11.235 L 25.5504,-11.7672 L 25.1803,-12.3503 L 24.8862,-12.9753
 L 24.6728,-13.6322 L 24.5434,-14.3107 L 24.5,-15 L 24.5434,-15.6893 L 24.6728,-16.3678 L 24.8862,-17.0247
 L 25.1803,-17.6496 L 25.5504,-18.2328 L 25.9907,-18.765 L 26.4942,-19.2378 L 27.0529,-19.6438 L 27.6582,-19.9765
 L 28.3004,-20.2308 L 28.9694,-20.4026 L 29.6546,-20.4891 L 30,-20.4891 L 30,-24.5108 L 29.6546,-24.5108
 L 28.9694,-24.5974 L 28.3004,-24.7692 L 27.6582,-25.0234 L 27.0529,-25.3562 L 26.4942,-25.7622 L 25.9907,-26.235
 L 25.5504,-26.7672 L 25.1803,-27.3503 L 24.8862,-27.9753 L 24.6728,-28.6322 L 24.5434,-29.3107 L 24.5006,-29.9901
 L 20.4994,-29.9901 L 20.4566,-29.3107 L 20.3272,-28.6322 L 20.1138,-27.9753 L 19.8197,-27.3503 L 19.4496,-26.7672
 L 19.0093,-26.235 L 18.5058,-25.7622 L 17.947,-25.3562 L 17.3418,-25.0234 L 16.6996,-24.7692 L 16.0306,-24.5974
 L 15.3453,-24.5108 L 14.6546,-24.5108 L 13.9694,-24.5974 L 13.3004,-24.7692 L 12.6582,-25.0234 L 12.0529,-25.3562
 L 11.4942,-25.7622 L 10.9907,-26.235 L 10.5504,-26.7672 L 10.1803,-27.3503 L 9.88622,-27.9753 L 9.67279,-28.6322
 L 9.54337,-29.3107 L 9.50061,-29.9901 L 5.49937,-29.9901 L 5.45662,-29.3107 L 5.32719,-28.6322 L 5.11377,-27.9753
 L 4.81967,-27.3503 L 4.44958,-26.7672 L 4.00932,-26.235 L 3.50583,-25.7622 L 2.94704,-25.3562 L 2.34178,-25.0234
 L 1.69958,-24.7692 L 1.03059,-24.5974 L 0.345337,-24.5108 L -0.345337,-24.5108 L -1.03059,-24.5974 L -1.69958,-24.7692
 L -2.34178,-25.0234 L -2.94704,-25.3562 L -3.50583,-25.7622 L -4.00932,-26.235 L -4.44958,-26.7672 L -4.81967,-27.3503
 L -5.11377,-27.9753 L -5.32719,-28.6322 L -5.45662,-29.3107 L -5.49937,-29.9901 L -9.50061,-29.9901 L -9.54337,-29.3107
 L -9.67279,-28.6322 L -9.88622,-27.9753 L -10.1803,-27.3503 L -10.5504,-26.7672 L -10.9907,-26.235 L -11.4942,-25.7622
 L -12.0529,-25.3562 L -12.6582,-25.0234 L -13.3004,-24.7692 L -13.9694,-24.5974 L -14.6546,-24.5108 L -15.3453,-24.5108
 L -16.0306,-24.5974 L -16.6996,-24.7692 L -17.3418,-25.0234 L -17.947,-25.3562 L -18.5058,-25.7622 L -19.0093,-26.235
 L -19.4496,-26.7672 L -19.8197,-27.3503 L -20.1138,-27.9753 L -20.3272,-28.6322 L -20.4566,-29.3107 L -20.4994,-29.9901
 L -24.5006,-29.9901 L -24.5434,-29.3107 L -24.6728,-28.6322 L -24.8862,-27.9753 L -25.1803,-27.3503 L -25.5504,-26.7672
 L -25.9907,-26.235 L -26.4942,-25.7622 L -27.0529,-25.3562 L -27.6582,-25.0234 L -28.3004,-24.7692 L -28.9694,-24.5974
 L -29.6546,-24.5108 L -30,-24.5108 L -30,-20.4891 L -29.6546,-20.4891 L -28.9694,-20.4026 L -28.3004,-20.2308
 L -27.6582,-19.9765 L -27.0529,-19.6438 L -26.4942,-19.2378 L -25.9907,-18.765 L -25.5504,-18.2328 L -25.1803,-17.6496
 L -24.8862,-17.0247 L -24.6728,-16.3678 L -24.5434,-15.6893 L -24.5,-15 L -24.5434,-14.3107 L -24.6728,-13.6322
 L -24.8862,-12.9753 L -25.1803,-12.3503 L -25.5504,-11.7672 L -25.9907,-11.235 L -26.4942,-10.7622 L -27.0529,-10.3562
 L -27.6582,-10.0234 L -28.3004,-9.76918 L -28.9694,-9.59741 L -29.6546,-9.51085 L -30,-9.51085 L -30,-5.48914
 L -29.6546,-5.48914 L -28.9694,-5.40257 L -28.3004,-5.2308 L -27.6582,-4.97655 L -27.0529,-4.6438 L -26.4942,-4.23781
 L -25.9907,-3.765 L -25.5504,-3.23282 L -25.1803,-2.64964 L -24.8862,-2.02467 L -24.6728,-1.36778 L -24.5434,-0.689331
 L -24.5,-0 L -24.5434,0.689331 L -24.6728,1.36778 L -24.8862,2.02467 L -25.1803,2.64964 L -25.5504,3.23282
 L -25.9907,3.765 L -26.4942,4.23781 L -27.0529,4.6438 L -27.6582,4.97655 L -28.3004,5.2308 L -28.9694,5.40257
 L -29.6546,5.48914 L -30,5.48914 L -30,9.51085 L -29.6546,9.51085 L -28.9694,9.59741 L -28.3004,9.76918
 L -27.6582,10.0234 L -27.0529,10.3562 L -26.4942,10.7622 L -25.9907,11.235 L -25.5504,11.7672 L -25.1803,12.3503
 L -24.8862,12.9753 L -24.6728,13.6322 L -24.5434,14.3107 L -24.5,15 L -24.5434,15.6893 L -24.6728,16.3678
 L -24.8862,17.0247 L -25.1803,17.6496 L -25.5504,18.2328 L -25.9907,18.765 L -26.4942,19.2378 L -27.0529,19.6438
 L -27.6582,19.9765 L -28.3004,20.2308 L -28.9694,20.4026 L -29.6546,20.4891 L -30,20.4891 L -30,24.5108
 L -29.6546,24.5108 L -28.9694,24.5974 L -28.3004,24.7692 L -27.6582,25.0234 L -27.0529,25.3562 L -26.4942,25.7622
 L -25.9907,26.235 L -25.5504,26.7672 L -25.1803,27.3503 L -24.8862,27.9753 L -24.6728,28.6322 L -24.5434,29.3107
 L -24.5006,29.9901 L -20.4994,29.9901 z
M -4.81967,-12.3503 L -5.11377,-12.9753 L -5.32719,-13.6322 L -5.45662,-14.3107 L -5.5,-15 L -5.45662,-15.6893
 L -5.32719,-16.3678 L -5.11377,-17.0247 L -4.81967,-17.6496 L -4.44958,-18.2328 L -4.00932,-18.765 L -3.50583,-19.2378
 L -2.94704,-19.6438 L -2.34178,-19.9765 L -1.69958,-20.2308 L -1.03059,-20.4026 L -0.345337,-20.4891 L 0.345337,-20.4891
 L 1.03059,-20.4026 L 1.69958,-20.2308 L 2.34178,-19.9765 L 2.94704,-19.6438 L 3.50583,-19.2378 L 4.00932,-18.765
 L 4.44958,-18.2328 L 4.81967,-17.6496 L 5.11377,-17.0247 L 5.32719,-16.3678 L 5.45662,-15.6893 L 5.5,-15
 L 5.45662,-14.3107 L 5.32719,-13.6322 L 5.11377,-12.9753 L 4.81967,-12.3503 L 4.44958,-11.7672 L 4.00932,-11.235
 L 3.50583,-10.7622 L 2.94704,-10.3562 L 2.34178,-10.0234 L 1.69958,-9.76918 L 1.03059,-9.59741 L 0.345337,-9.51085
 L -0.345337,-9.51085 L -1.03059,-9.59741 L -1.69958,-9.76918 L -2.34178,-10.0234 L -2.94704,-10.3562 L -3.50583,-10.7622
 L -4.00932,-11.235 L -4.44958,-11.7672 z
M 14.6546,-9.51085 L 13.9694,-9.59741 L 13.3004,-9.76918 L 12.6582,-10.0234 L 12.0529,-10.3562 L 11.4942,-10.7622
 L 10.9907,-11.235 L 10.5504,-11.7672 L 10.1803,-12.3503 L 9.88622,-12.9753 L 9.67279,-13.6322 L 9.54337,-14.3107
 L 9.5,-15 L 9.54337,-15.6893 L 9.67279,-16.3678 L 9.88622,-17.0247 L 10.1803,-17.6496 L 10.5504,-18.2328
 L 10.9907,-18.765 L 11.4942,-19.2378 L 12.0529,-19.6438 L 12.6582,-19.9765 L 13.3004,-20.2308 L 13.9694,-20.4026
 L 14.6546,-20.4891 L 15.3453,-20.4891 L 16.0306,-20.4026 L 16.6996,-20.2308 L 17.3418,-19.9765 L 17.947,-19.6438
 L 18.5058,-19.2378 L 19.0093,-18.765 L 19.4496,-18.2328 L 19.8197,-17.6496 L 20.1138,-17.0247 L 20.3272,-16.3678
 L 20.4566,-15.6893 L 20.5,-15 L 20.4566,-14.3107 L 20.3272,-13.6322 L 20.1138,-12.9753 L 19.8197,-12.3503
 L 19.4496,-11.7672 L 19.0093,-11.235 L 18.5058,-10.7622 L 17.947,-10.3562 L 17.3418,-10.0234 L 16.6996,-9.76918
 L 16.0306,-9.59741 L 15.3453,-9.51085 z
M -0.345337,5.48914 L -1.03059,5.40257 L -1.69958,5.2308 L -2.34178,4.97655 L -2.94704,4.6438 L -3.50583,4.23781
 L -4.00932,3.765 L -4.44958,3.23282 L -4.81967,2.64964 L -5.11377,2.02467 L -5.32719,1.36778 L -5.45662,0.689331
 L -5.5,-0 L -5.45662,-0.689331 L -5.32719,-1.36778 L -5.11377,-2.02467 L -4.81967,-2.64964 L -4.44958,-3.23282
 L -4.00932,-3.765 L -3.50583,-4.23781 L -2.94704,-4.6438 L -2.34178,-4.97655 L -1.69958,-5.2308 L -1.03059,-5.40257
 L -0.345337,-5.48914 L 0.345337,-5.48914 L 1.03059,-5.40257 L 1.69958,-5.2308 L 2.34178,-4.97655 L 2.94704,-4.6438
 L 3.50583,-4.23781 L 4.00932,-3.765 L 4.44958,-3.23282 L 4.81967,-2.64964 L 5.11377,-2.02467 L 5.32719,-1.36778
 L 5.45662,-0.689331 L 5.5,-0 L 5.45662,0.689331 L 5.32719,1.36778 L 5.11377,2.02467 L 4.81967,2.64964
 L 4.44958,3.23282 L 4.00932,3.765 L 3.50583,4.23781 L 2.94704,4.6438 L 2.34178,4.97655 L 1.69958,5.2308
 L 1.03059,5.40257 L 0.345337,5.48914 z
M 14.6546,5.48914 L 13.9694,5.40257 L 13.3004,5.2308 L 12.6582,4.97655 L 12.0529,4.6438 L 11.4942,4.23781
 L 10.9907,3.765 L 10.5504,3.23282 L 10.1803,2.64964 L 9.88622,2.02467 L 9.67279,1.36778 L 9.54337,0.689331
 L 9.5,-0 L 9.54337,-0.689331 L 9.67279,-1.36778 L 9.88622,-2.02467 L 10.1803,-2.64964 L 10.5504,-3.23282
 L 10.9907,-3.765 L 11.4942,-4.23781 L 12.0529,-4.6438 L 12.6582,-4.97655 L 13.3004,-5.2308 L 13.9694,-5.40257
 L 14.6546,-5.48914 L 15.3453,-5.48914 L 16.0306,-5.40257 L 16.6996,-5.2308 L 17.3418,-4.97655 L 17.947,-4.6438
 L 18.5058,-4.23781 L 19.0093,-3.765 L 19.4496,-3.23282 L 19.8197,-2.64964 L 20.1138,-2.02467 L 20.3272,-1.36778
 L 20.4566,-0.689331 L 20.5,-0 L 20.4566,0.689331 L 20.3272,1.36778 L 20.1138,2.02467 L 19.8197,2.64964
 L 19.4496,3.23282 L 19.0093,3.765 L 18.5058,4.23781 L 17.947,4.6438 L 17.3418,4.97655 L 16.6996,5.2308
 L 16.0306,5.40257 L 15.3453,5.48914 z
M -15.3453,5.48914 L -16.0306,5.40257 L -16.6996,5.2308 L -17.3418,4.97655 L -17.947,4.6438 L -18.5058,4.23781
 L -19.0093,3.765 L -19.4496,3.23282 L -19.8197,2.64964 L -20.1138,2.02467 L -20.3272,1.36778 L -20.4566,0.689331
 L -20.5,-0 L -20.4566,-0.689331 L -20.3272,-1.36778 L -20.1138,-2.02467 L -19.8197,-2.64964 L -19.4496,-3.23282
 L -19.0093,-3.765 L -18.5058,-4.23781 L -17.947,-4.6438 L -17.3418,-4.97655 L -16.6996,-5.2308 L -16.0306,-5.40257
 L -15.3453,-5.48914 L -14.6546,-5.48914 L -13.9694,-5.40257 L -13.3004,-5.2308 L -12.6582,-4.97655 L -12.0529,-4.6438
 L -11.4942,-4.23781 L -10.9907,-3.765 L -10.5504,-3.23282 L -10.1803,-2.64964 L -9.88622,-2.02467 L -9.67279,-1.36778
 L -9.54337,-0.689331 L -9.5,-0 L -9.54337,0.689331 L -9.67279,1.36778 L -9.88622,2.02467 L -10.1803,2.64964
 L -10.5504,3.23282 L -10.9907,3.765 L -11.4942,4.23781 L -12.0529,4.6438 L -12.6582,4.97655 L -13.3004,5.2308
 L -13.9694,5.40257 L -14.6546,5.48914 z
M -15.3453,20.4891 L -16.0306,20.4026 L -16.6996,20.2308 L -17.3418,19.9765 L -17.947,19.6438 L -18.5058,19.2378
 L -19.0093,18.765 L -19.4496,18.2328 L -19.8197,17.6496 L -20.1138,17.0247 L -20.3272,16.3678 L -20.4566,15.6893
 L -20.5,15 L -20.4566,14.3107 L -20.3272,13.6322 L -20.1138,12.9753 L -19.8197,12.3503 L -19.4496,11.7672
 L -19.0093,11.235 L -18.5058,10.7622 L -17.947,10.3562 L -17.3418,10.0234 L -16.6996,9.76918 L -16.0306,9.59741
 L -15.3453,9.51085 L -14.6546,9.51085 L -13.9694,9.59741 L -13.3004,9.76918 L -12.6582,10.0234 L -12.0529,10.3562
 L -11.4942,10.7622 L -10.9907,11.235 L -10.5504,11.7672 L -10.1803,12.3503 L -9.88622,12.9753 L -9.67279,13.6322
 L -9.54337,14.3107 L -9.5,15 L -9.54337,15.6893 L -9.67279,16.3678 L -9.88622,17.0247 L -10.1803,17.6496
 L -10.5504,18.2328 L -10.9907,18.765 L -11.4942,19.2378 L -12.0529,19.6438 L -12.6582,19.9765 L -13.3004,20.2308
 L -13.9694,20.4026 L -14.6546,20.4891 z
M 14.6546,20.4891 L 13.9694,20.4026 L 13.3004,20.2308 L 12.6582,19.9765 L 12.0529,19.6438 L 11.4942,19.2378
 L 10.9907,18.765 L 10.5504,18.2328 L 10.1803,17.6496 L 9.88622,17.0247 L 9.67279,16.3678 L 9.54337,15.6893
 L 9.5,15 L 9.54337,14.3107 L 9.67279,13.6322 L 9.88622,12.9753 L 10.1803,12.3503 L 10.5504,11.7672
 L 10.9907,11.235 L 11.4942,10.7622 L 12.0529,10.3562 L 12.6582,10.0234 L 13.3004,9.76918 L 13.9694,9.59741
 L 14.6546,9.51085 L 15.3453,9.51085 L 16.0306,9.59741 L 16.6996,9.76918 L 17.3418,10.0234 L 17.947,10.3562
 L 18.5058,10.7622 L 19.0093,11.235 L 19.4496,11.7672 L 19.8197,12.3503 L 20.1138,12.9753 L 20.3272,13.6322
 L 20.4566,14.3107 L 20.5,15 L 20.4566,15.6893 L 20.3272,16.3678 L 20.1138,17.0247 L 19.8197,17.6496
 L 19.4496,18.2328 L 19.0093,18.765 L 18.5058,19.2378 L 17.947,19.6438 L 17.3418,19.9765 L 16.6996,20.2308
 L 16.0306,20.4026 L 15.3453,20.4891 z
M -0.345337,20.4891 L -1.03059,20.4026 L -1.69958,20.2308 L -2.34178,19.9765 L -2.94704,19.6438 L -3.50583,19.2378
 L -4.00932,18.765 L -4.44958,18.2328 L -4.81967,17.6496 L -5.11377,17.0247 L -5.32719,16.3678 L -5.45662,15.6893
 L -5.5,15 L -5.45662,14.3107 L -5.32719,13.6322 L -5.11377,12.9753 L -4.81967,12.3503 L -4.44958,11.7672
 L -4.00932,11.235 L -3.50583,10.7622 L -2.94704,10.3562 L -2.34178,10.0234 L -1.69958,9.76918 L -1.03059,9.59741
 L -0.345337,9.51085 L 0.345337,9.51085 L 1.03059,9.59741 L 1.69958,9.76918 L 2.34178,10.0234 L 2.94704,10.3562
 L 3.50583,10.7622 L 4.00932,11.235 L 4.44958,11.7672 L 4.81967,12.3503 L 5.11377,12.9753 L 5.32719,13.6322
 L 5.45662,14.3107 L 5.5,15 L 5.45662,15.6893 L 5.32719,16.3678 L 5.11377,17.0247 L 4.81967,17.6496
 L 4.44958,18.2328 L 4.00932,18.765 L 3.50583,19.2378 L 2.94704,19.6438 L 2.34178,19.9765 L 1.69958,20.2308
 L 1.03059,20.4026 L 0.345337,20.4891 z
M -12.0529,-10.3562 L -12.6582,-10.0234 L -13.3004,-9.76918 L -13.9694,-9.59741 L -14.6546,-9.51085 L -15.3453,-9.51085
 L -16.0306,-9.59741 L -16.6996,-9.76918 L -17.3418,-10.0234 L -17.947,-10.3562 L -18.5058,-10.7622 L -19.0093,-11.235
 L -19.4496,-11.7672 L -19.8197,-12.3503 L -20.1138,-12.9753 L -20.3272,-13.6322 L -20.4566,-14.3107 L -20.5,-15
 L -20.4566,-15.6893 L -20.3272,-16.3678 L -20.1138,-17.0247 L -19.8197,-17.6496 L -19.4496,-18.2328 L -19.0093,-18.765
 L -18.5058,-19.2378 L -17.947,-19.6438 L -17.3418,-19.9765 L -16.6996,-20.2308 L -16.0306,-20.4026 L -15.3453,-20.4891
 L -14.6546,-20.4891 L -13.9694,-20.4026 L -13.3004,-20.2308 L -12.6582,-19.9765 L -12.0529,-19.6438 L -11.4942,-19.2378
 L -10.9907,-18.765 L -10.5504,-18.2328 L -10.1803,-17.6496 L -9.88622,-17.0247 L -9.67279,-16.3678 L -9.54337,-15.6893
 L -9.5,-15 L -9.54337,-14.3107 L -9.67279,-13.6322 L -9.88622,-12.9753 L -10.1803,-12.3503 L -10.5504,-11.7672
 L -10.9907,-11.235 L -11.4942,-10.7622 z
" stroke="black" fill="lightgray" stroke-width="0.5"/>
</svg>
