  0
SECTION
  2
BLOCKS
  0
ENDSEC
  0
SECTION
  2
ENTITIES
  0
LINE
  8
0
 10
-20.4566
 20
-29.3107
 11
-20.3272
 21
-28.6322
  0
LINE
  8
0
 10
-20.3272
 20
-28.6322
 11
-20.1138
 21
-27.9753
  0
LINE
  8
0
 10
-20.1138
 20
-27.9753
 11
-19.8197
 21
-27.3503
  0
LINE
  8
0
 10
-19.8197
 20
-27.3503
 11
-19.4496
 21
-26.7672
  0
LINE
  8
0
 10
-19.4496
 20
-26.7672
 11
-19.0093
 21
-26.235
  0
LINE
  8
0
 10
-19.0093
 20
-26.235
 11
-18.5058
 21
-25.7622
  0
LINE
  8
0
 10
-18.5058
 20
-25.7622
 11
-17.947
 21
-25.3562
  0
LINE
  8
0
 10
-17.947
 20
-25.3562
 11
-17.3418
 21
-25.0234
  0
LINE
  8
0
 10
-17.3418
 20
-25.0234
 11
-16.6996
 21
-24.7692
  0
LINE
  8
0
 10
-16.6996
 20
-24.7692
 11
-16.0306
 21
-24.5974
  0
LINE
  8
0
 10
-16.0306
 20
-24.5974
 11
-15.3453
 21
-24.5108
  0
LINE
  8
0
 10
-15.3453
 20
-24.5108
 11
-14.6546
 21
-24.5108
  0
LINE
  8
0
 10
-14.6546
 20
-24.5108
 11
-13.9694
 21
-24.5974
  0
LINE
  8
0
 10
-13.9694
 20
-24.5974
 11
-13.3004
 21
-24.7692
  0
LINE
  8
0
 10
-13.3004
 20
-24.7692
 11
-12.6582
 21
-25.0234
  0
LINE
  8
0
 10
-12.6582
 20
-25.0234
 11
-12.0529
 21
-25.3562
  0
LINE
  8
0
 10
-12.0529
 20
-25.3562
 11
-11.4942
 21
-25.7622
  0
LINE
  8
0
 10
-11.4942
 20
-25.7622
 11
-10.9907
 21
-26.235
  0
LINE
  8
0
 10
-10.9907
 20
-26.235
 11
-10.5504
 21
-26.7672
  0
LINE
  8
0
 10
-10.5504
 20
-26.7672
 11
-10.1803
 21
-27.3503
  0
LINE
  8
0
 10
-10.1803
 20
-27.3503
 11
-9.88622
 21
-27.9753
  0
LINE
  8
0
 10
-9.88622
 20
-27.9753
 11
-9.67279
 21
-28.6322
  0
LINE
  8
0
 10
-9.67279
 20
-28.6322
 11
-9.54337
 21
-29.3107
  0
LINE
  8
0
 10
-9.54337
 20
-29.3107
 11
-9.50061
 21
-29.9901
  0
LINE
  8
0
 10
-9.50061
 20
-29.9901
 11
-5.49937
 21
-29.9901
  0
LINE
  8
0
 10
-5.49937
 20
-29.9901
 11
-5.45662
 21
-29.3107
  0
LINE
  8
0
 10
-5.45662
 20
-29.3107
 11
-5.32719
 21
-28.6322
  0
LINE
  8
0
 10
-5.32719
 20
-28.6322
 11
-5.11377
 21
-27.9753
  0
LINE
  8
0
 10
-5.11377
 20
-27.9753
 11
-4.81967
 21
-27.3503
  0
LINE
  8
0
 10
-4.81967
 20
-27.3503
 11
-4.44958
 21
-26.7672
  0
LINE
  8
0
 10
-4.44958
 20
-26.7672
 11
-4.00932
 21
-26.235
  0
LINE
  8
0
 10
-4.00932
 20
-26.235
 11
-3.50583
 21
-25.7622
  0
LINE
  8
0
 10
-3.50583
 20
-25.7622
 11
-2.94704
 21
-25.3562
  0
LINE
  8
0
 10
-2.94704
 20
-25.3562
 11
-2.34178
 21
-25.0234
  0
LINE
  8
0
 10
-2.34178
 20
-25.0234
 11
-1.69958
 21
-24.7692
  0
LINE
  8
0
 10
-1.69958
 20
-24.7692
 11
-1.03059
 21
-24.5974
  0
LINE
  8
0
 10
-1.03059
 20
-24.5974
 11
-0.345337
 21
-24.5108
  0
LINE
  8
0
 10
-0.345337
 20
-24.5108
 11
0.345337
 21
-24.5108
  0
LINE
  8
0
 10
0.345337
 20
-24.5108
 11
1.03059
 21
-24.5974
  0
LINE
  8
0
 10
1.03059
 20
-24.5974
 11
1.69958
 21
-24.7692
  0
LINE
  8
0
 10
1.69958
 20
-24.7692
 11
2.34178
 21
-25.0234
  0
LINE
  8
0
 10
2.34178
 20
-25.0234
 11
2.94704
 21
-25.3562
  0
LINE
  8
0
 10
2.94704
 20
-25.3562
 11
3.50583
 21
-25.7622
  0
LINE
  8
0
 10
3.50583
 20
-25.7622
 11
4.00932
 21
-26.235
  0
LINE
  8
0
 10
4.00932
 20
-26.235
 11
4.44958
 21
-26.7672
  0
LINE
  8
0
 10
4.44958
 20
-26.7672
 11
4.81967
 21
-27.3503
  0
LINE
  8
0
 10
4.81967
 20
-27.3503
 11
5.11377
 21
-27.9753
  0
LINE
  8
0
 10
5.11377
 20
-27.9753
 11
5.32719
 21
-28.6322
  0
LINE
  8
0
 10
5.32719
 20
-28.6322
 11
5.45662
 21
-29.3107
  0
LINE
  8
0
 10
5.45662
 20
-29.3107
 11
5.49937
 21
-29.9901
  0
LINE
  8
0
 10
5.49937
 20
-29.9901
 11
9.50061
 21
-29.9901
  0
LINE
  8
0
 10
9.50061
 20
-29.9901
 11
9.54337
 21
-29.3107
  0
LINE
  8
0
 10
9.54337
 20
-29.3107
 11
9.67279
 21
-28.6322
  0
LINE
  8
0
 10
9.67279
 20
-28.6322
 11
9.88622
 21
-27.9753
  0
LINE
  8
0
 10
9.88622
 20
-27.9753
 11
10.1803
 21
-27.3503
  0
LINE
  8
0
 10
10.1803
 20
-27.3503
 11
10.5504
 21
-26.7672
  0
LINE
  8
0
 10
10.5504
 20
-26.7672
 11
10.9907
 21
-26.235
  0
LINE
  8
0
 10
10.9907
 20
-26.235
 11
11.4942
 21
-25.7622
  0
LINE
  8
0
 10
11.4942
 20
-25.7622
 11
12.0529
 21
-25.3562
  0
LINE
  8
0
 10
12.0529
 20
-25.3562
 11
12.6582
 21
-25.0234
  0
LINE
  8
0
 10
12.6582
 20
-25.0234
 11
13.3004
 21
-24.7692
  0
LINE
  8
0
 10
13.3004
 20
-24.7692
 11
13.9694
 21
-24.5974
  0
LINE
  8
0
 10
13.9694
 20
-24.5974
 11
14.6546
 21
-24.5108
  0
LINE
  8
0
 10
14.6546
 20
-24.5108
 11
15.3453
 21
-24.5108
  0
LINE
  8
0
 10
15.3453
 20
-24.5108
 11
16.0306
 21
-24.5974
  0
LINE
  8
0
 10
16.0306
 20
-24.5974
 11
16.6996
 21
-24.7692
  0
LINE
  8
0
 10
16.6996
 20
-24.7692
 11
17.3418
 21
-25.0234
  0
LINE
  8
0
 10
17.3418
 20
-25.0234
 11
17.947
 21
-25.3562
  0
LINE
  8
0
 10
17.947
 20
-25.3562
 11
18.5058
 21
-25.7622
  0
LINE
  8
0
 10
18.5058
 20
-25.7622
 11
19.0093
 21
-26.235
  0
LINE
  8
0
 10
19.0093
 20
-26.235
 11
19.4496
 21
-26.7672
  0
LINE
  8
0
 10
19.4496
 20
-26.7672
 11
19.8197
 21
-27.3503
  0
LINE
  8
0
 10
19.8197
 20
-27.3503
 11
20.1138
 21
-27.9753
  0
LINE
  8
0
 10
20.1138
 20
-27.9753
 11
20.3272
 21
-28.6322
  0
LINE
  8
0
 10
20.3272
 20
-28.6322
 11
20.4566
 21
-29.3107
  0
LINE
  8
0
 10
20.4566
 20
-29.3107
 11
20.4994
 21
-29.9901
  0
LINE
  8
0
 10
20.4994
 20
-29.9901
 11
24.5006
 21
-29.9901
  0
LINE
  8
0
 10
24.5006
 20
-29.9901
 11
24.5434
 21
-29.3107
  0
LINE
  8
0
 10
24.5434
 20
-29.3107
 11
24.6728
 21
-28.6322
  0
LINE
  8
0
 10
24.6728
 20
-28.6322
 11
24.8862
 21
-27.9753
  0
LINE
  8
0
 10
24.8862
 20
-27.9753
 11
25.1803
 21
-27.3503
  0
LINE
  8
0
 10
25.1803
 20
-27.3503
 11
25.5504
 21
-26.7672
  0
LINE
  8
0
 10
25.5504
 20
-26.7672
 11
25.9907
 21
-26.235
  0
LINE
  8
0
 10
25.9907
 20
-26.235
 11
26.4942
 21
-25.7622
  0
LINE
  8
0
 10
26.4942
 20
-25.7622
 11
27.0529
 21
-25.3562
  0
LINE
  8
0
 10
27.0529
 20
-25.3562
 11
27.6582
 21
-25.0234
  0
LINE
  8
0
 10
27.6582
 20
-25.0234
 11
28.3004
 21
-24.7692
  0
LINE
  8
0
 10
28.3004
 20
-24.7692
 11
28.9694
 21
-24.5974
  0
LINE
  8
0
 10
28.9694
 20
-24.5974
 11
29.6546
 21
-24.5108
  0
LINE
  8
0
 10
29.6546
 20
-24.5108
 11
30
 21
-24.5108
  0
LINE
  8
0
 10
30
 20
-24.5108
 11
30
 21
-20.4891
  0
LINE
  8
0
 10
30
 20
-20.4891
 11
29.6546
 21
-20.4891
  0
LINE
  8
0
 10
29.6546
 20
-20.4891
 11
28.9694
 21
-20.4026
  0
LINE
  8
0
 10
28.9694
 20
-20.4026
 11
28.3004
 21
-20.2308
  0
LINE
  8
0
 10
28.3004
 20
-20.2308
 11
27.6582
 21
-19.9765
  0
LINE
  8
0
 10
27.6582
 20
-19.9765
 11
27.0529
 21
-19.6438
  0
LINE
  8
0
 10
27.0529
 20
-19.6438
 11
26.4942
 21
-19.2378
  0
LINE
  8
0
 10
26.4942
 20
-19.2378
 11
25.9907
 21
-18.765
  0
LINE
  8
0
 10
25.9907
 20
-18.765
 11
25.5504
 21
-18.2328
  0
LINE
  8
0
 10
25.5504
 20
-18.2328
 11
25.1803
 21
-17.6496
  0
LINE
  8
0
 10
25.1803
 20
-17.6496
 11
24.8862
 21
-17.0247
  0
LINE
  8
0
 10
24.8862
 20
-17.0247
 11
24.6728
 21
-16.3678
  0
LINE
  8
0
 10
24.6728
 20
-16.3678
 11
24.5434
 21
-15.6893
  0
LINE
  8
0
 10
24.5434
 20
-15.6893
 11
24.5
 21
-15
  0
LINE
  8
0
 10
24.5
 20
-15
 11
24.5434
 21
-14.3107
  0
LINE
  8
0
 10
24.5434
 20
-14.3107
 11
24.6728
 21
-13.6322
  0
LINE
  8
0
 10
24.6728
 20
-13.6322
 11
24.8862
 21
-12.9753
  0
LINE
  8
0
 10
24.8862
 20
-12.9753
 11
25.1803
 21
-12.3503
  0
LINE
  8
0
 10
25.1803
 20
-12.3503
 11
25.5504
 21
-11.7672
  0
LINE
  8
0
 10
25.5504
 20
-11.7672
 11
25.9907
 21
-11.235
  0
LINE
  8
0
 10
25.9907
 20
-11.235
 11
26.4942
 21
-10.7622
  0
LINE
  8
0
 10
26.4942
 20
-10.7622
 11
27.0529
 21
-10.3562
  0
LINE
  8
0
 10
27.0529
 20
-10.3562
 11
27.6582
 21
-10.0234
  0
LINE
  8
0
 10
27.6582
 20
-10.0234
 11
28.3004
 21
-9.76918
  0
LINE
  8
0
 10
28.3004
 20
-9.76918
 11
28.9694
 21
-9.59741
  0
LINE
  8
0
 10
28.9694
 20
-9.59741
 11
29.6546
 21
-9.51085
  0
LINE
  8
0
 10
29.6546
 20
-9.51085
 11
30
 21
-9.51085
  0
LINE
  8
0
 10
30
 20
-9.51085
 11
30
 21
-5.48914
  0
LINE
  8
0
 10
30
 20
-5.48914
 11
29.6546
 21
-5.48914
  0
LINE
  8
0
 10
29.6546
 20
-5.48914
 11
28.9694
 21
-5.40257
  0
LINE
  8
0
 10
28.9694
 20
-5.40257
 11
28.3004
 21
-5.2308
  0
LINE
  8
0
 10
28.3004
 20
-5.2308
 11
27.6582
 21
-4.97655
  0
LINE
  8
0
 10
27.6582
 20
-4.97655
 11
27.0529
 21
-4.6438
  0
LINE
  8
0
 10
27.0529
 20
-4.6438
 11
26.4942
 21
-4.23781
  0
LINE
  8
0
 10
26.4942
 20
-4.23781
 11
25.9907
 21
-3.765
  0
LINE
  8
0
 10
25.9907
 20
-3.765
 11
25.5504
 21
-3.23282
  0
LINE
  8
0
 10
25.5504
 20
-3.23282
 11
25.1803
 21
-2.64964
  0
LINE
  8
0
 10
25.1803
 20
-2.64964
 11
24.8862
 21
-2.02467
  0
LINE
  8
0
 10
24.8862
 20
-2.02467
 11
24.6728
 21
-1.36778
  0
LINE
  8
0
 10
24.6728
 20
-1.36778
 11
24.5434
 21
-0.689331
  0
LINE
  8
0
 10
24.5434
 20
-0.689331
 11
24.5
 21
0
  0
LINE
  8
0
 10
24.5
 20
0
 11
24.5434
 21
0.689331
  0
LINE
  8
0
 10
24.5434
 20
0.689331
 11
24.6728
 21
1.36778
  0
LINE
  8
0
 10
24.6728
 20
1.36778
 11
24.8862
 21
2.02467
  0
LINE
  8
0
 10
24.8862
 20
2.02467
 11
25.1803
 21
2.64964
  0
LINE
  8
0
 10
25.1803
 20
2.64964
 11
25.5504
 21
3.23282
  0
LINE
  8
0
 10
25.5504
 20
3.23282
 11
25.9907
 21
3.765
  0
LINE
  8
0
 10
25.9907
 20
3.765
 11
26.4942
 21
4.23781
  0
LINE
  8
0
 10
26.4942
 20
4.23781
 11
27.0529
 21
4.6438
  0
LINE
  8
0
 10
27.0529
 20
4.6438
 11
27.6582
 21
4.97655
  0
LINE
  8
0
 10
27.6582
 20
4.97655
 11
28.3004
 21
5.2308
  0
LINE
  8
0
 10
28.3004
 20
5.2308
 11
28.9694
 21
5.40257
  0
LINE
  8
0
 10
28.9694
 20
5.40257
 11
29.6546
 21
5.48914
  0
LINE
  8
0
 10
29.6546
 20
5.48914
 11
30
 21
5.48914
  0
LINE
  8
0
 10
30
 20
5.48914
 11
30
 21
9.51085
  0
LINE
  8
0
 10
30
 20
9.51085
 11
29.6546
 21
9.51085
  0
LINE
  8
0
 10
29.6546
 20
9.51085
 11
28.9694
 21
9.59741
  0
LINE
  8
0
 10
28.9694
 20
9.59741
 11
28.3004
 21
9.76918
  0
LINE
  8
0
 10
28.3004
 20
9.76918
 11
27.6582
 21
10.0234
  0
LINE
  8
0
 10
27.6582
 20
10.0234
 11
27.0529
 21
10.3562
  0
LINE
  8
0
 10
27.0529
 20
10.3562
 11
26.4942
 21
10.7622
  0
LINE
  8
0
 10
26.4942
 20
10.7622
 11
25.9907
 21
11.235
  0
LINE
  8
0
 10
25.9907
 20
11.235
 11
25.5504
 21
11.7672
  0
LINE
  8
0
 10
25.5504
 20
11.7672
 11
25.1803
 21
12.3503
  0
LINE
  8
0
 10
25.1803
 20
12.3503
 11
24.8862
 21
12.9753
  0
LINE
  8
0
 10
24.8862
 20
12.9753
 11
24.6728
 21
13.6322
  0
LINE
  8
0
 10
24.6728
 20
13.6322
 11
24.5434
 21
14.3107
  0
LINE
  8
0
 10
24.5434
 20
14.3107
 11
24.5
 21
15
  0
LINE
  8
0
 10
24.5
 20
15
 11
24.5434
 21
15.6893
  0
LINE
  8
0
 10
24.5434
 20
15.6893
 11
24.6728
 21
16.3678
  0
LINE
  8
0
 10
24.6728
 20
16.3678
 11
24.8862
 21
17.0247
  0
LINE
  8
0
 10
24.8862
 20
17.0247
 11
25.1803
 21
17.6496
  0
LINE
  8
0
 10
25.1803
 20
17.6496
 11
25.5504
 21
18.2328
  0
LINE
  8
0
 10
25.5504
 20
18.2328
 11
25.9907
 21
18.765
  0
LINE
  8
0
 10
25.9907
 20
18.765
 11
26.4942
 21
19.2378
  0
LINE
  8
0
 10
26.4942
 20
19.2378
 11
27.0529
 21
19.6438
  0
LINE
  8
0
 10
27.0529
 20
19.6438
 11
27.6582
 21
19.9765
  0
LINE
  8
0
 10
27.6582
 20
19.9765
 11
28.3004
 21
20.2308
  0
LINE
  8
0
 10
28.3004
 20
20.2308
 11
28.9694
 21
20.4026
  0
LINE
  8
0
 10
28.9694
 20
20.4026
 11
29.6546
 21
20.4891
  0
LINE
  8
0
 10
29.6546
 20
20.4891
 11
30
 21
20.4891
  0
LINE
  8
0
 10
30
 20
20.4891
 11
30
 21
24.5108
  0
LINE
  8
0
 10
30
 20
24.5108
 11
29.6546
 21
24.5108
  0
LINE
  8
0
 10
29.6546
 20
24.5108
 11
28.9694
 21
24.5974
  0
LINE
  8
0
 10
28.9694
 20
24.5974
 11
28.3004
 21
24.7692
  0
LINE
  8
0
 10
28.3004
 20
24.7692
 11
27.6582
 21
25.0234
  0
LINE
  8
0
 10
27.6582
 20
25.0234
 11
27.0529
 21
25.3562
  0
LINE
  8
0
 10
27.0529
 20
25.3562
 11
26.4942
 21
25.7622
  0
LINE
  8
0
 10
26.4942
 20
25.7622
 11
25.9907
 21
26.235
  0
LINE
  8
0
 10
25.9907
 20
26.235
 11
25.5504
 21
26.7672
  0
LINE
  8
0
 10
25.5504
 20
26.7672
 11
25.1803
 21
27.3503
  0
LINE
  8
0
 10
25.1803
 20
27.3503
 11
24.8862
 21
27.9753
  0
LINE
  8
0
 10
24.8862
 20
27.9753
 11
24.6728
 21
28.6322
  0
LINE
  8
0
 10
24.6728
 20
28.6322
 11
24.5434
 21
29.3107
  0
LINE
  8
0
 10
24.5434
 20
29.3107
 11
24.5006
 21
29.9901
  0
LINE
  8
0
 10
24.5006
 20
29.9901
 11
20.4994
 21
29.9901
  0
LINE
  8
0
 10
20.4994
 20
29.9901
 11
20.4566
 21
29.3107
  0
LINE
  8
0
 10
20.4566
 20
29.3107
 11
20.3272
 21
28.6322
  0
LINE
  8
0
 10
20.3272
 20
28.6322
 11
20.1138
 21
27.9753
  0
LINE
  8
0
 10
20.1138
 20
27.9753
 11
19.8197
 21
27.3503
  0
LINE
  8
0
 10
19.8197
 20
27.3503
 11
19.4496
 21
26.7672
  0
LINE
  8
0
 10
19.4496
 20
26.7672
 11
19.0093
 21
26.235
  0
LINE
  8
0
 10
19.0093
 20
26.235
 11
18.5058
 21
25.7622
  0
LINE
  8
0
 10
18.5058
 20
25.7622
 11
17.947
 21
25.3562
  0
LINE
  8
0
 10
17.947
 20
25.3562
 11
17.3418
 21
25.0234
  0
LINE
  8
0
 10
17.3418
 20
25.0234
 11
16.6996
 21
24.7692
  0
LINE
  8
0
 10
16.6996
 20
24.7692
 11
16.0306
 21
24.5974
  0
LINE
  8
0
 10
16.0306
 20
24.5974
 11
15.3453
 21
24.5108
  0
LINE
  8
0
 10
15.3453
 20
24.5108
 11
14.6546
 21
24.5108
  0
LINE
  8
0
 10
14.6546
 20
24.5108
 11
13.9694
 21
24.5974
  0
LINE
  8
0
 10
13.9694
 20
24.5974
 11
13.3004
 21
24.7692
  0
LINE
  8
0
 10
13.3004
 20
24.7692
 11
12.6582
 21
25.0234
  0
LINE
  8
0
 10
12.6582
 20
25.0234
 11
12.0529
 21
25.3562
  0
LINE
  8
0
 10
12.0529
 20
25.3562
 11
11.4942
 21
25.7622
  0
LINE
  8
0
 10
11.4942
 20
25.7622
 11
10.9907
 21
26.235
  0
LINE
  8
0
 10
10.9907
 20
26.235
 11
10.5504
 21
26.7672
  0
LINE
  8
0
 10
10.5504
 20
26.7672
 11
10.1803
 21
27.3503
  0
LINE
  8
0
 10
10.1803
 20
27.3503
 11
9.88622
 21
27.9753
  0
LINE
  8
0
 10
9.88622
 20
27.9753
 11
9.67279
 21
28.6322
  0
LINE
  8
0
 10
9.67279
 20
28.6322
 11
9.54337
 21
29.3107
  0
LINE
  8
0
 10
9.54337
 20
29.3107
 11
9.50061
 21
29.9901
  0
LINE
  8
0
 10
9.50061
 20
29.9901
 11
5.49937
 21
29.9901
  0
LINE
  8
0
 10
5.49937
 20
29.9901
 11
5.45662
 21
29.3107
  0
LINE
  8
0
 10
5.45662
 20
29.3107
 11
5.32719
 21
28.6322
  0
LINE
  8
0
 10
5.32719
 20
28.6322
 11
5.11377
 21
27.9753
  0
LINE
  8
0
 10
5.11377
 20
27.9753
 11
4.81967
 21
27.3503
  0
LINE
  8
0
 10
4.81967
 20
27.3503
 11
4.44958
 21
26.7672
  0
LINE
  8
0
 10
4.44958
 20
26.7672
 11
4.00932
 21
26.235
  0
LINE
  8
0
 10
4.00932
 20
26.235
 11
3.50583
 21
25.7622
  0
LINE
  8
0
 10
3.50583
 20
25.7622
 11
2.94704
 21
25.3562
  0
LINE
  8
0
 10
2.94704
 20
25.3562
 11
2.34178
 21
25.0234
  0
LINE
  8
0
 10
2.34178
 20
25.0234
 11
1.69958
 21
24.7692
  0
LINE
  8
0
 10
1.69958
 20
24.7692
 11
1.03059
 21
24.5974
  0
LINE
  8
0
 10
1.03059
 20
24.5974
 11
0.345337
 21
24.5108
  0
LINE
  8
0
 10
0.345337
 20
24.5108
 11
-0.345337
 21
24.5108
  0
LINE
  8
0
 10
-0.345337
 20
24.5108
 11
-1.03059
 21
24.5974
  0
LINE
  8
0
 10
-1.03059
 20
24.5974
 11
-1.69958
 21
24.7692
  0
LINE
  8
0
 10
-1.69958
 20
24.7692
 11
-2.34178
 21
25.0234
  0
LINE
  8
0
 10
-2.34178
 20
25.0234
 11
-2.94704
 21
25.3562
  0
LINE
  8
0
 10
-2.94704
 20
25.3562
 11
-3.50583
 21
25.7622
  0
LINE
  8
0
 10
-3.50583
 20
25.7622
 11
-4.00932
 21
26.235
  0
LINE
  8
0
 10
-4.00932
 20
26.235
 11
-4.44958
 21
26.7672
  0
LINE
  8
0
 10
-4.44958
 20
26.7672
 11
-4.81967
 21
27.3503
  0
LINE
  8
0
 10
-4.81967
 20
27.3503
 11
-5.11377
 21
27.9753
  0
LINE
  8
0
 10
-5.11377
 20
27.9753
 11
-5.32719
 21
28.6322
  0
LINE
  8
0
 10
-5.32719
 20
28.6322
 11
-5.45662
 21
29.3107
  0
LINE
  8
0
 10
-5.45662
 20
29.3107
 11
-5.49937
 21
29.9901
  0
LINE
  8
0
 10
-5.49937
 20
29.9901
 11
-9.50061
 21
29.9901
  0
LINE
  8
0
 10
-9.50061
 20
29.9901
 11
-9.54337
 21
29.3107
  0
LINE
  8
0
 10
-9.54337
 20
29.3107
 11
-9.67279
 21
28.6322
  0
LINE
  8
0
 10
-9.67279
 20
28.6322
 11
-9.88622
 21
27.9753
  0
LINE
  8
0
 10
-9.88622
 20
27.9753
 11
-10.1803
 21
27.3503
  0
LINE
  8
0
 10
-10.1803
 20
27.3503
 11
-10.5504
 21
26.7672
  0
LINE
  8
0
 10
-10.5504
 20
26.7672
 11
-10.9907
 21
26.235
  0
LINE
  8
0
 10
-10.9907
 20
26.235
 11
-11.4942
 21
25.7622
  0
LINE
  8
0
 10
-11.4942
 20
25.7622
 11
-12.0529
 21
25.3562
  0
LINE
  8
0
 10
-12.0529
 20
25.3562
 11
-12.6582
 21
25.0234
  0
LINE
  8
0
 10
-12.6582
 20
25.0234
 11
-13.3004
 21
24.7692
  0
LINE
  8
0
 10
-13.3004
 20
24.7692
 11
-13.9694
 21
24.5974
  0
LINE
  8
0
 10
-13.9694
 20
24.5974
 11
-14.6546
 21
24.5108
  0
LINE
  8
0
 10
-14.6546
 20
24.5108
 11
-15.3453
 21
24.5108
  0
LINE
  8
0
 10
-15.3453
 20
24.5108
 11
-16.0306
 21
24.5974
  0
LINE
  8
0
 10
-16.0306
 20
24.5974
 11
-16.6996
 21
24.7692
  0
LINE
  8
0
 10
-16.6996
 20
24.7692
 11
-17.3418
 21
25.0234
  0
LINE
  8
0
 10
-17.3418
 20
25.0234
 11
-17.947
 21
25.3562
  0
LINE
  8
0
 10
-17.947
 20
25.3562
 11
-18.5058
 21
25.7622
  0
LINE
  8
0
 10
-18.5058
 20
25.7622
 11
-19.0093
 21
26.235
  0
LINE
  8
0
 10
-19.0093
 20
26.235
 11
-19.4496
 21
26.7672
  0
LINE
  8
0
 10
-19.4496
 20
26.7672
 11
-19.8197
 21
27.3503
  0
LINE
  8
0
 10
-19.8197
 20
27.3503
 11
-20.1138
 21
27.9753
  0
LINE
  8
0
 10
-20.1138
 20
27.9753
 11
-20.3272
 21
28.6322
  0
LINE
  8
0
 10
-20.3272
 20
28.6322
 11
-20.4566
 21
29.3107
  0
LINE
  8
0
 10
-20.4566
 20
29.3107
 11
-20.4994
 21
29.9901
  0
LINE
  8
0
 10
-20.4994
 20
29.9901
 11
-24.5006
 21
29.9901
  0
LINE
  8
0
 10
-24.5006
 20
29.9901
 11
-24.5434
 21
29.3107
  0
LINE
  8
0
 10
-24.5434
 20
29.3107
 11
-24.6728
 21
28.6322
  0
LINE
  8
0
 10
-24.6728
 20
28.6322
 11
-24.8862
 21
27.9753
  0
LINE
  8
0
 10
-24.8862
 20
27.9753
 11
-25.1803
 21
27.3503
  0
LINE
  8
0
 10
-25.1803
 20
27.3503
 11
-25.5504
 21
26.7672
  0
LINE
  8
0
 10
-25.5504
 20
26.7672
 11
-25.9907
 21
26.235
  0
LINE
  8
0
 10
-25.9907
 20
26.235
 11
-26.4942
 21
25.7622
  0
LINE
  8
0
 10
-26.4942
 20
25.7622
 11
-27.0529
 21
25.3562
  0
LINE
  8
0
 10
-27.0529
 20
25.3562
 11
-27.6582
 21
25.0234
  0
LINE
  8
0
 10
-27.6582
 20
25.0234
 11
-28.3004
 21
24.7692
  0
LINE
  8
0
 10
-28.3004
 20
24.7692
 11
-28.9694
 21
24.5974
  0
LINE
  8
0
 10
-28.9694
 20
24.5974
 11
-29.6546
 21
24.5108
  0
LINE
  8
0
 10
-29.6546
 20
24.5108
 11
-30
 21
24.5108
  0
LINE
  8
0
 10
-30
 20
24.5108
 11
-30
 21
20.4891
  0
LINE
  8
0
 10
-30
 20
20.4891
 11
-29.6546
 21
20.4891
  0
LINE
  8
0
 10
-29.6546
 20
20.4891
 11
-28.9694
 21
20.4026
  0
LINE
  8
0
 10
-28.9694
 20
20.4026
 11
-28.3004
 21
20.2308
  0
LINE
  8
0
 10
-28.3004
 20
20.2308
 11
-27.6582
 21
19.9765
  0
LINE
  8
0
 10
-27.6582
 20
19.9765
 11
-27.0529
 21
19.6438
  0
LINE
  8
0
 10
-27.0529
 20
19.6438
 11
-26.4942
 21
19.2378
  0
LINE
  8
0
 10
-26.4942
 20
19.2378
 11
-25.9907
 21
18.765
  0
LINE
  8
0
 10
-25.9907
 20
18.765
 11
-25.5504
 21
18.2328
  0
LINE
  8
0
 10
-25.5504
 20
18.2328
 11
-25.1803
 21
17.6496
  0
LINE
  8
0
 10
-25.1803
 20
17.6496
 11
-24.8862
 21
17.0247
  0
LINE
  8
0
 10
-24.8862
 20
17.0247
 11
-24.6728
 21
16.3678
  0
LINE
  8
0
 10
-24.6728
 20
16.3678
 11
-24.5434
 21
15.6893
  0
LINE
  8
0
 10
-24.5434
 20
15.6893
 11
-24.5
 21
15
  0
LINE
  8
0
 10
-24.5
 20
15
 11
-24.5434
 21
14.3107
  0
LINE
  8
0
 10
-24.5434
 20
14.3107
 11
-24.6728
 21
13.6322
  0
LINE
  8
0
 10
-24.6728
 20
13.6322
 11
-24.8862
 21
12.9753
  0
LINE
  8
0
 10
-24.8862
 20
12.9753
 11
-25.1803
 21
12.3503
  0
LINE
  8
0
 10
-25.1803
 20
12.3503
 11
-25.5504
 21
11.7672
  0
LINE
  8
0
 10
-25.5504
 20
11.7672
 11
-25.9907
 21
11.235
  0
LINE
  8
0
 10
-25.9907
 20
11.235
 11
-26.4942
 21
10.7622
  0
LINE
  8
0
 10
-26.4942
 20
10.7622
 11
-27.0529
 21
10.3562
  0
LINE
  8
0
 10
-27.0529
 20
10.3562
 11
-27.6582
 21
10.0234
  0
LINE
  8
0
 10
-27.6582
 20
10.0234
 11
-28.3004
 21
9.76918
  0
LINE
  8
0
 10
-28.3004
 20
9.76918
 11
-28.9694
 21
9.59741
  0
LINE
  8
0
 10
-28.9694
 20
9.59741
 11
-29.6546
 21
9.51085
  0
LINE
  8
0
 10
-29.6546
 20
9.51085
 11
-30
 21
9.51085
  0
LINE
  8
0
 10
-30
 20
9.51085
 11
-30
 21
5.48914
  0
LINE
  8
0
 10
-30
 20
5.48914
 11
-29.6546
 21
5.48914
  0
LINE
  8
0
 10
-29.6546
 20
5.48914
 11
-28.9694
 21
5.40257
  0
LINE
  8
0
 10
-28.9694
 20
5.40257
 11
-28.3004
 21
5.2308
  0
LINE
  8
0
 10
-28.3004
 20
5.2308
 11
-27.6582
 21
4.97655
  0
LINE
  8
0
 10
-27.6582
 20
4.97655
 11
-27.0529
 21
4.6438
  0
LINE
  8
0
 10
-27.0529
 20
4.6438
 11
-26.4942
 21
4.23781
  0
LINE
  8
0
 10
-26.4942
 20
4.23781
 11
-25.9907
 21
3.765
  0
LINE
  8
0
 10
-25.9907
 20
3.765
 11
-25.5504
 21
3.23282
  0
LINE
  8
0
 10
-25.5504
 20
3.23282
 11
-25.1803
 21
2.64964
  0
LINE
  8
0
 10
-25.1803
 20
2.64964
 11
-24.8862
 21
2.02467
  0
LINE
  8
0
 10
-24.8862
 20
2.02467
 11
-24.6728
 21
1.36778
  0
LINE
  8
0
 10
-24.6728
 20
1.36778
 11
-24.5434
 21
0.689331
  0
LINE
  8
0
 10
-24.5434
 20
0.689331
 11
-24.5
 21
0
  0
LINE
  8
0
 10
-24.5
 20
0
 11
-24.5434
 21
-0.689331
  0
LINE
  8
0
 10
-24.5434
 20
-0.689331
 11
-24.6728
 21
-1.36778
  0
LINE
  8
0
 10
-24.6728
 20
-1.36778
 11
-24.8862
 21
-2.02467
  0
LINE
  8
0
 10
-24.8862
 20
-2.02467
 11
-25.1803
 21
-2.64964
  0
LINE
  8
0
 10
-25.1803
 20
-2.64964
 11
-25.5504
 21
-3.23282
  0
LINE
  8
0
 10
-25.5504
 20
-3.23282
 11
-25.9907
 21
-3.765
  0
LINE
  8
0
 10
-25.9907
 20
-3.765
 11
-26.4942
 21
-4.23781
  0
LINE
  8
0
 10
-26.4942
 20
-4.23781
 11
-27.0529
 21
-4.6438
  0
LINE
  8
0
 10
-27.0529
 20
-4.6438
 11
-27.6582
 21
-4.97655
  0
LINE
  8
0
 10
-27.6582
 20
-4.97655
 11
-28.3004
 21
-5.2308
  0
LINE
  8
0
 10
-28.3004
 20
-5.2308
 11
-28.9694
 21
-5.40257
  0
LINE
  8
0
 10
-28.9694
 20
-5.40257
 11
-29.6546
 21
-5.48914
  0
LINE
  8
0
 10
-29.6546
 20
-5.48914
 11
-30
 21
-5.48914
  0
LINE
  8
0
 10
-30
 20
-5.48914
 11
-30
 21
-9.51085
  0
LINE
  8
0
 10
-30
 20
-9.51085
 11
-29.6546
 21
-9.51085
  0
LINE
  8
0
 10
-29.6546
 20
-9.51085
 11
-28.9694
 21
-9.59741
  0
LINE
  8
0
 10
-28.9694
 20
-9.59741
 11
-28.3004
 21
-9.76918
  0
LINE
  8
0
 10
-28.3004
 20
-9.76918
 11
-27.6582
 21
-10.0234
  0
LINE
  8
0
 10
-27.6582
 20
-10.0234
 11
-27.0529
 21
-10.3562
  0
LINE
  8
0
 10
-27.0529
 20
-10.3562
 11
-26.4942
 21
-10.7622
  0
LINE
  8
0
 10
-26.4942
 20
-10.7622
 11
-25.9907
 21
-11.235
  0
LINE
  8
0
 10
-25.9907
 20
-11.235
 11
-25.5504
 21
-11.7672
  0
LINE
  8
0
 10
-25.5504
 20
-11.7672
 11
-25.1803
 21
-12.3503
  0
LINE
  8
0
 10
-25.1803
 20
-12.3503
 11
-24.8862
 21
-12.9753
  0
LINE
  8
0
 10
-24.8862
 20
-12.9753
 11
-24.6728
 21
-13.6322
  0
LINE
  8
0
 10
-24.6728
 20
-13.6322
 11
-24.5434
 21
-14.3107
  0
LINE
  8
0
 10
-24.5434
 20
-14.3107
 11
-24.5
 21
-15
  0
LINE
  8
0
 10
-24.5
 20
-15
 11
-24.5434
 21
-15.6893
  0
LINE
  8
0
 10
-24.5434
 20
-15.6893
 11
-24.6728
 21
-16.3678
  0
LINE
  8
0
 10
-24.6728
 20
-16.3678
 11
-24.8862
 21
-17.0247
  0
LINE
  8
0
 10
-24.8862
 20
-17.0247
 11
-25.1803
 21
-17.6496
  0
LINE
  8
0
 10
-25.1803
 20
-17.6496
 11
-25.5504
 21
-18.2328
  0
LINE
  8
0
 10
-25.5504
 20
-18.2328
 11
-25.9907
 21
-18.765
  0
LINE
  8
0
 10
-25.9907
 20
-18.765
 11
-26.4942
 21
-19.2378
  0
LINE
  8
0
 10
-26.4942
 20
-19.2378
 11
-27.0529
 21
-19.6438
  0
LINE
  8
0
 10
-27.0529
 20
-19.6438
 11
-27.6582
 21
-19.9765
  0
LINE
  8
0
 10
-27.6582
 20
-19.9765
 11
-28.3004
 21
-20.2308
  0
LINE
  8
0
 10
-28.3004
 20
-20.2308
 11
-28.9694
 21
-20.4026
  0
LINE
  8
0
 10
-28.9694
 20
-20.4026
 11
-29.6546
 21
-20.4891
  0
LINE
  8
0
 10
-29.6546
 20
-20.4891
 11
-30
 21
-20.4891
  0
LINE
  8
0
 10
-30
 20
-20.4891
 11
-30
 21
-24.5108
  0
LINE
  8
0
 10
-30
 20
-24.5108
 11
-29.6546
 21
-24.5108
  0
LINE
  8
0
 10
-29.6546
 20
-24.5108
 11
-28.9694
 21
-24.5974
  0
LINE
  8
0
 10
-28.9694
 20
-24.5974
 11
-28.3004
 21
-24.7692
  0
LINE
  8
0
 10
-28.3004
 20
-24.7692
 11
-27.6582
 21
-25.0234
  0
LINE
  8
0
 10
-27.6582
 20
-25.0234
 11
-27.0529
 21
-25.3562
  0
LINE
  8
0
 10
-27.0529
 20
-25.3562
 11
-26.4942
 21
-25.7622
  0
LINE
  8
0
 10
-26.4942
 20
-25.7622
 11
-25.9907
 21
-26.235
  0
LINE
  8
0
 10
-25.9907
 20
-26.235
 11
-25.5504
 21
-26.7672
  0
LINE
  8
0
 10
-25.5504
 20
-26.7672
 11
-25.1803
 21
-27.3503
  0
LINE
  8
0
 10
-25.1803
 20
-27.3503
 11
-24.8862
 21
-27.9753
  0
LINE
  8
0
 10
-24.8862
 20
-27.9753
 11
-24.6728
 21
-28.6322
  0
LINE
  8
0
 10
-24.6728
 20
-28.6322
 11
-24.5434
 21
-29.3107
  0
LINE
  8
0
 10
-24.5434
 20
-29.3107
 11
-24.5006
 21
-29.9901
  0
LINE
  8
0
 10
-24.5006
 20
-29.9901
 11
-20.4994
 21
-29.9901
  0
LINE
  8
0
 10
-20.4994
 20
-29.9901
 11
-20.4566
 21
-29.3107
  0
LINE
  8
0
 10
-4.81967
 20
12.3503
 11
-5.11377
 21
12.9753
  0
LINE
  8
0
 10
-5.11377
 20
12.9753
 11
-5.32719
 21
13.6322
  0
LINE
  8
0
 10
-5.32719
 20
13.6322
 11
-5.45662
 21
14.3107
  0
LINE
  8
0
 10
-5.45662
 20
14.3107
 11
-5.5
 21
15
  0
LINE
  8
0
 10
-5.5
 20
15
 11
-5.45662
 21
15.6893
  0
LINE
  8
0
 10
-5.45662
 20
15.6893
 11
-5.32719
 21
16.3678
  0
LINE
  8
0
 10
-5.32719
 20
16.3678
 11
-5.11377
 21
17.0247
  0
LINE
  8
0
 10
-5.11377
 20
17.0247
 11
-4.81967
 21
17.6496
  0
LINE
  8
0
 10
-4.81967
 20
17.6496
 11
-4.44958
 21
18.2328
  0
LINE
  8
0
 10
-4.44958
 20
18.2328
 11
-4.00932
 21
18.765
  0
LINE
  8
0
 10
-4.00932
 20
18.765
 11
-3.50583
 21
19.2378
  0
LINE
  8
0
 10
-3.50583
 20
19.2378
 11
-2.94704
 21
19.6438
  0
LINE
  8
0
 10
-2.94704
 20
19.6438
 11
-2.34178
 21
19.9765
  0
LINE
  8
0
 10
-2.34178
 20
19.9765
 11
-1.69958
 21
20.2308
  0
LINE
  8
0
 10
-1.69958
 20
20.2308
 11
-1.03059
 21
20.4026
  0
LINE
  8
0
 10
-1.03059
 20
20.4026
 11
-0.345337
 21
20.4891
  0
LINE
  8
0
 10
-0.345337
 20
20.4891
 11
0.345337
 21
20.4891
  0
LINE
  8
0
 10
0.345337
 20
20.4891
 11
1.03059
 21
20.4026
  0
LINE
  8
0
 10
1.03059
 20
20.4026
 11
1.69958
 21
20.2308
  0
LINE
  8
0
 10
1.69958
 20
20.2308
 11
2.34178
 21
19.9765
  0
LINE
  8
0
 10
2.34178
 20
19.9765
 11
2.94704
 21
19.6438
  0
LINE
  8
0
 10
2.94704
 20
19.6438
 11
3.50583
 21
19.2378
  0
LINE
  8
0
 10
3.50583
 20
19.2378
 11
4.00932
 21
18.765
  0
LINE
  8
0
 10
4.00932
 20
18.765
 11
4.44958
 21
18.2328
  0
LINE
  8
0
 10
4.44958
 20
18.2328
 11
4.81967
 21
17.6496
  0
LINE
  8
0
 10
4.81967
 20
17.6496
 11
5.11377
 21
17.0247
  0
LINE
  8
0
 10
5.11377
 20
17.0247
 11
5.32719
 21
16.3678
  0
LINE
  8
0
 10
5.32719
 20
16.3678
 11
5.45662
 21
15.6893
  0
LINE
  8
0
 10
5.45662
 20
15.6893
 11
5.5
 21
15
  0
LINE
  8
0
 10
5.5
 20
15
 11
5.45662
 21
14.3107
  0
LINE
  8
0
 10
5.45662
 20
14.3107
 11
5.32719
 21
13.6322
  0
LINE
  8
0
 10
5.32719
 20
13.6322
 11
5.11377
 21
12.9753
  0
LINE
  8
0
 10
5.11377
 20
12.9753
 11
4.81967
 21
12.3503
  0
LINE
  8
0
 10
4.81967
 20
12.3503
 11
4.44958
 21
11.7672
  0
LINE
  8
0
 10
4.44958
 20
11.7672
 11
4.00932
 21
11.235
  0
LINE
  8
0
 10
4.00932
 20
11.235
 11
3.50583
 21
10.7622
  0
LINE
  8
0
 10
3.50583
 20
10.7622
 11
2.94704
 21
10.3562
  0
LINE
  8
0
 10
2.94704
 20
10.3562
 11
2.34178
 21
10.0234
  0
LINE
  8
0
 10
2.34178
 20
10.0234
 11
1.69958
 21
9.76918
  0
LINE
  8
0
 10
1.69958
 20
9.76918
 11
1.03059
 21
9.59741
  0
LINE
  8
0
 10
1.03059
 20
9.59741
 11
0.345337
 21
9.51085
  0
LINE
  8
0
 10
0.345337
 20
9.51085
 11
-0.345337
 21
9.51085
  0
LINE
  8
0
 10
-0.345337
 20
9.51085
 11
-1.03059
 21
9.59741
  0
LINE
  8
0
 10
-1.03059
 20
9.59741
 11
-1.69958
 21
9.76918
  0
LINE
  8
0
 10
-1.69958
 20
9.76918
 11
-2.34178
 21
10.0234
  0
LINE
  8
0
 10
-2.34178
 20
10.0234
 11
-2.94704
 21
10.3562
  0
LINE
  8
0
 10
-2.94704
 20
10.3562
 11
-3.50583
 21
10.7622
  0
LINE
  8
0
 10
-3.50583
 20
10.7622
 11
-4.00932
 21
11.235
  0
LINE
  8
0
 10
-4.00932
 20
11.235
 11
-4.44958
 21
11.7672
  0
LINE
  8
0
 10
-4.44958
 20
11.7672
 11
-4.81967
 21
12.3503
  0
LINE
  8
0
 10
14.6546
 20
9.51085
 11
13.9694
 21
9.59741
  0
LINE
  8
0
 10
13.9694
 20
9.59741
 11
13.3004
 21
9.76918
  0
LINE
  8
0
 10
13.3004
 20
9.76918
 11
12.6582
 21
10.0234
  0
LINE
  8
0
 10
12.6582
 20
10.0234
 11
12.0529
 21
10.3562
  0
LINE
  8
0
 10
12.0529
 20
10.3562
 11
11.4942
 21
10.7622
  0
LINE
  8
0
 10
11.4942
 20
10.7622
 11
10.9907
 21
11.235
  0
LINE
  8
0
 10
10.9907
 20
11.235
 11
10.5504
 21
11.7672
  0
LINE
  8
0
 10
10.5504
 20
11.7672
 11
10.1803
 21
12.3503
  0
LINE
  8
0
 10
10.1803
 20
12.3503
 11
9.88622
 21
12.9753
  0
LINE
  8
0
 10
9.88622
 20
12.9753
 11
9.67279
 21
13.6322
  0
LINE
  8
0
 10
9.67279
 20
13.6322
 11
9.54337
 21
14.3107
  0
LINE
  8
0
 10
9.54337
 20
14.3107
 11
9.5
 21
15
  0
LINE
  8
0
 10
9.5
 20
15
 11
9.54337
 21
15.6893
  0
LINE
  8
0
 10
9.54337
 20
15.6893
 11
9.67279
 21
16.3678
  0
LINE
  8
0
 10
9.67279
 20
16.3678
 11
9.88622
 21
17.0247
  0
LINE
  8
0
 10
9.88622
 20
17.0247
 11
10.1803
 21
17.6496
  0
LINE
  8
0
 10
10.1803
 20
17.6496
 11
10.5504
 21
18.2328
  0
LINE
  8
0
 10
10.5504
 20
18.2328
 11
10.9907
 21
18.765
  0
LINE
  8
0
 10
10.9907
 20
18.765
 11
11.4942
 21
19.2378
  0
LINE
  8
0
 10
11.4942
 20
19.2378
 11
12.0529
 21
19.6438
  0
LINE
  8
0
 10
12.0529
 20
19.6438
 11
12.6582
 21
19.9765
  0
LINE
  8
0
 10
12.6582
 20
19.9765
 11
13.3004
 21
20.2308
  0
LINE
  8
0
 10
13.3004
 20
20.2308
 11
13.9694
 21
20.4026
  0
LINE
  8
0
 10
13.9694
 20
20.4026
 11
14.6546
 21
20.4891
  0
LINE
  8
0
 10
14.6546
 20
20.4891
 11
15.3453
 21
20.4891
  0
LINE
  8
0
 10
15.3453
 20
20.4891
 11
16.0306
 21
20.4026
  0
LINE
  8
0
 10
16.0306
 20
20.4026
 11
16.6996
 21
20.2308
  0
LINE
  8
0
 10
16.6996
 20
20.2308
 11
17.3418
 21
19.9765
  0
LINE
  8
0
 10
17.3418
 20
19.9765
 11
17.947
 21
19.6438
  0
LINE
  8
0
 10
17.947
 20
19.6438
 11
18.5058
 21
19.2378
  0
LINE
  8
0
 10
18.5058
 20
19.2378
 11
19.0093
 21
18.765
  0
LINE
  8
0
 10
19.0093
 20
18.765
 11
19.4496
 21
18.2328
  0
LINE
  8
0
 10
19.4496
 20
18.2328
 11
19.8197
 21
17.6496
  0
LINE
  8
0
 10
19.8197
 20
17.6496
 11
20.1138
 21
17.0247
  0
LINE
  8
0
 10
20.1138
 20
17.0247
 11
20.3272
 21
16.3678
  0
LINE
  8
0
 10
20.3272
 20
16.3678
 11
20.4566
 21
15.6893
  0
LINE
  8
0
 10
20.4566
 20
15.6893
 11
20.5
 21
15
  0
LINE
  8
0
 10
20.5
 20
15
 11
20.4566
 21
14.3107
  0
LINE
  8
0
 10
20.4566
 20
14.3107
 11
20.3272
 21
13.6322
  0
LINE
  8
0
 10
20.3272
 20
13.6322
 11
20.1138
 21
12.9753
  0
LINE
  8
0
 10
20.1138
 20
12.9753
 11
19.8197
 21
12.3503
  0
LINE
  8
0
 10
19.8197
 20
12.3503
 11
19.4496
 21
11.7672
  0
LINE
  8
0
 10
19.4496
 20
11.7672
 11
19.0093
 21
11.235
  0
LINE
  8
0
 10
19.0093
 20
11.235
 11
18.5058
 21
10.7622
  0
LINE
  8
0
 10
18.5058
 20
10.7622
 11
17.947
 21
10.3562
  0
LINE
  8
0
 10
17.947
 20
10.3562
 11
17.3418
 21
10.0234
  0
LINE
  8
0
 10
17.3418
 20
10.0234
 11
16.6996
 21
9.76918
  0
LINE
  8
0
 10
16.6996
 20
9.76918
 11
16.0306
 21
9.59741
  0
LINE
  8
0
 10
16.0306
 20
9.59741
 11
15.3453
 21
9.51085
  0
LINE
  8
0
 10
15.3453
 20
9.51085
 11
14.6546
 21
9.51085
  0
LINE
  8
0
 10
-0.345337
 20
-5.48914
 11
-1.03059
 21
-5.40257
  0
LINE
  8
0
 10
-1.03059
 20
-5.40257
 11
-1.69958
 21
-5.2308
  0
LINE
  8
0
 10
-1.69958
 20
-5.2308
 11
-2.34178
 21
-4.97655
  0
LINE
  8
0
 10
-2.34178
 20
-4.97655
 11
-2.94704
 21
-4.6438
  0
LINE
  8
0
 10
-2.94704
 20
-4.6438
 11
-3.50583
 21
-4.23781
  0
LINE
  8
0
 10
-3.50583
 20
-4.23781
 11
-4.00932
 21
-3.765
  0
LINE
  8
0
 10
-4.00932
 20
-3.765
 11
-4.44958
 21
-3.23282
  0
LINE
  8
0
 10
-4.44958
 20
-3.23282
 11
-4.81967
 21
-2.64964
  0
LINE
  8
0
 10
-4.81967
 20
-2.64964
 11
-5.11377
 21
-2.02467
  0
LINE
  8
0
 10
-5.11377
 20
-2.02467
 11
-5.32719
 21
-1.36778
  0
LINE
  8
0
 10
-5.32719
 20
-1.36778
 11
-5.45662
 21
-0.689331
  0
LINE
  8
0
 10
-5.45662
 20
-0.689331
 11
-5.5
 21
0
  0
LINE
  8
0
 10
-5.5
 20
0
 11
-5.45662
 21
0.689331
  0
LINE
  8
0
 10
-5.45662
 20
0.689331
 11
-5.32719
 21
1.36778
  0
LINE
  8
0
 10
-5.32719
 20
1.36778
 11
-5.11377
 21
2.02467
  0
LINE
  8
0
 10
-5.11377
 20
2.02467
 11
-4.81967
 21
2.64964
  0
LINE
  8
0
 10
-4.81967
 20
2.64964
 11
-4.44958
 21
3.23282
  0
LINE
  8
0
 10
-4.44958
 20
3.23282
 11
-4.00932
 21
3.765
  0
LINE
  8
0
 10
-4.00932
 20
3.765
 11
-3.50583
 21
4.23781
  0
LINE
  8
0
 10
-3.50583
 20
4.23781
 11
-2.94704
 21
4.6438
  0
LINE
  8
0
 10
-2.94704
 20
4.6438
 11
-2.34178
 21
4.97655
  0
LINE
  8
0
 10
-2.34178
 20
4.97655
 11
-1.69958
 21
5.2308
  0
LINE
  8
0
 10
-1.69958
 20
5.2308
 11
-1.03059
 21
5.40257
  0
LINE
  8
0
 10
-1.03059
 20
5.40257
 11
-0.345337
 21
5.48914
  0
LINE
  8
0
 10
-0.345337
 20
5.48914
 11
0.345337
 21
5.48914
  0
LINE
  8
0
 10
0.345337
 20
5.48914
 11
1.03059
 21
5.40257
  0
LINE
  8
0
 10
1.03059
 20
5.40257
 11
1.69958
 21
5.2308
  0
LINE
  8
0
 10
1.69958
 20
5.2308
 11
2.34178
 21
4.97655
  0
LINE
  8
0
 10
2.34178
 20
4.97655
 11
2.94704
 21
4.6438
  0
LINE
  8
0
 10
2.94704
 20
4.6438
 11
3.50583
 21
4.23781
  0
LINE
  8
0
 10
3.50583
 20
4.23781
 11
4.00932
 21
3.765
  0
LINE
  8
0
 10
4.00932
 20
3.765
 11
4.44958
 21
3.23282
  0
LINE
  8
0
 10
4.44958
 20
3.23282
 11
4.81967
 21
2.64964
  0
LINE
  8
0
 10
4.81967
 20
2.64964
 11
5.11377
 21
2.02467
  0
LINE
  8
0
 10
5.11377
 20
2.02467
 11
5.32719
 21
1.36778
  0
LINE
  8
0
 10
5.32719
 20
1.36778
 11
5.45662
 21
0.689331
  0
LINE
  8
0
 10
5.45662
 20
0.689331
 11
5.5
 21
0
  0
LINE
  8
0
 10
5.5
 20
0
 11
5.45662
 21
-0.689331
  0
LINE
  8
0
 10
5.45662
 20
-0.689331
 11
5.32719
 21
-1.36778
  0
LINE
  8
0
 10
5.32719
 20
-1.36778
 11
5.11377
 21
-2.02467
  0
LINE
  8
0
 10
5.11377
 20
-2.02467
 11
4.81967
 21
-2.64964
  0
LINE
  8
0
 10
4.81967
 20
-2.64964
 11
4.44958
 21
-3.23282
  0
LINE
  8
0
 10
4.44958
 20
-3.23282
 11
4.00932
 21
-3.765
  0
LINE
  8
0
 10
4.00932
 20
-3.765
 11
3.50583
 21
-4.23781
  0
LINE
  8
0
 10
3.50583
 20
-4.23781
 11
2.94704
 21
-4.6438
  0
LINE
  8
0
 10
2.94704
 20
-4.6438
 11
2.34178
 21
-4.97655
  0
LINE
  8
0
 10
2.34178
 20
-4.97655
 11
1.69958
 21
-5.2308
  0
LINE
  8
0
 10
1.69958
 20
-5.2308
 11
1.03059
 21
-5.40257
  0
LINE
  8
0
 10
1.03059
 20
-5.40257
 11
0.345337
 21
-5.48914
  0
LINE
  8
0
 10
0.345337
 20
-5.48914
 11
-0.345337
 21
-5.48914
  0
LINE
  8
0
 10
14.6546
 20
-5.48914
 11
13.9694
 21
-5.40257
  0
LINE
  8
0
 10
13.9694
 20
-5.40257
 11
13.3004
 21
-5.2308
  0
LINE
  8
0
 10
13.3004
 20
-5.2308
 11
12.6582
 21
-4.97655
  0
LINE
  8
0
 10
12.6582
 20
-4.97655
 11
12.0529
 21
-4.6438
  0
LINE
  8
0
 10
12.0529
 20
-4.6438
 11
11.4942
 21
-4.23781
  0
LINE
  8
0
 10
11.4942
 20
-4.23781
 11
10.9907
 21
-3.765
  0
LINE
  8
0
 10
10.9907
 20
-3.765
 11
10.5504
 21
-3.23282
  0
LINE
  8
0
 10
10.5504
 20
-3.23282
 11
10.1803
 21
-2.64964
  0
LINE
  8
0
 10
10.1803
 20
-2.64964
 11
9.88622
 21
-2.02467
  0
LINE
  8
0
 10
9.88622
 20
-2.02467
 11
9.67279
 21
-1.36778
  0
LINE
  8
0
 10
9.67279
 20
-1.36778
 11
9.54337
 21
-0.689331
  0
LINE
  8
0
 10
9.54337
 20
-0.689331
 11
9.5
 21
0
  0
LINE
  8
0
 10
9.5
 20
0
 11
9.54337
 21
0.689331
  0
LINE
  8
0
 10
9.54337
 20
0.689331
 11
9.67279
 21
1.36778
  0
LINE
  8
0
 10
9.67279
 20
1.36778
 11
9.88622
 21
2.02467
  0
LINE
  8
0
 10
9.88622
 20
2.02467
 11
10.1803
 21
2.64964
  0
LINE
  8
0
 10
10.1803
 20
2.64964
 11
10.5504
 21
3.23282
  0
LINE
  8
0
 10
10.5504
 20
3.23282
 11
10.9907
 21
3.765
  0
LINE
  8
0
 10
10.9907
 20
3.765
 11
11.4942
 21
4.23781
  0
LINE
  8
0
 10
11.4942
 20
4.23781
 11
12.0529
 21
4.6438
  0
LINE
  8
0
 10
12.0529
 20
4.6438
 11
12.6582
 21
4.97655
  0
LINE
  8
0
 10
12.6582
 20
4.97655
 11
13.3004
 21
5.2308
  0
LINE
  8
0
 10
13.3004
 20
5.2308
 11
13.9694
 21
5.40257
  0
LINE
  8
0
 10
13.9694
 20
5.40257
 11
14.6546
 21
5.48914
  0
LINE
  8
0
 10
14.6546
 20
5.48914
 11
15.3453
 21
5.48914
  0
LINE
  8
0
 10
15.3453
 20
5.48914
 11
16.0306
 21
5.40257
  0
LINE
  8
0
 10
16.0306
 20
5.40257
 11
16.6996
 21
5.2308
  0
LINE
  8
0
 10
16.6996
 20
5.2308
 11
17.3418
 21
4.97655
  0
LINE
  8
0
 10
17.3418
 20
4.97655
 11
17.947
 21
4.6438
  0
LINE
  8
0
 10
17.947
 20
4.6438
 11
18.5058
 21
4.23781
  0
LINE
  8
0
 10
18.5058
 20
4.23781
 11
19.0093
 21
3.765
  0
LINE
  8
0
 10
19.0093
 20
3.765
 11
19.4496
 21
3.23282
  0
LINE
  8
0
 10
19.4496
 20
3.23282
 11
19.8197
 21
2.64964
  0
LINE
  8
0
 10
19.8197
 20
2.64964
 11
20.1138
 21
2.02467
  0
LINE
  8
0
 10
20.1138
 20
2.02467
 11
20.3272
 21
1.36778
  0
LINE
  8
0
 10
20.3272
 20
1.36778
 11
20.4566
 21
0.689331
  0
LINE
  8
0
 10
20.4566
 20
0.689331
 11
20.5
 21
0
  0
LINE
  8
0
 10
20.5
 20
0
 11
20.4566
 21
-0.689331
  0
LINE
  8
0
 10
20.4566
 20
-0.689331
 11
20.3272
 21
-1.36778
  0
LINE
  8
0
 10
20.3272
 20
-1.36778
 11
20.1138
 21
-2.02467
  0
LINE
  8
0
 10
20.1138
 20
-2.02467
 11
19.8197
 21
-2.64964
  0
LINE
  8
0
 10
19.8197
 20
-2.64964
 11
19.4496
 21
-3.23282
  0
LINE
  8
0
 10
19.4496
 20
-3.23282
 11
19.0093
 21
-3.765
  0
LINE
  8
0
 10
19.0093
 20
-3.765
 11
18.5058
 21
-4.23781
  0
LINE
  8
0
 10
18.5058
 20
-4.23781
 11
17.947
 21
-4.6438
  0
LINE
  8
0
 10
17.947
 20
-4.6438
 11
17.3418
 21
-4.97655
  0
LINE
  8
0
 10
17.3418
 20
-4.97655
 11
16.6996
 21
-5.2308
  0
LINE
  8
0
 10
16.6996
 20
-5.2308
 11
16.0306
 21
-5.40257
  0
LINE
  8
0
 10
16.0306
 20
-5.40257
 11
15.3453
 21
-5.48914
  0
LINE
  8
0
 10
15.3453
 20
-5.48914
 11
14.6546
 21
-5.48914
  0
LINE
  8
0
 10
-15.3453
 20
-5.48914
 11
-16.0306
 21
-5.40257
  0
LINE
  8
0
 10
-16.0306
 20
-5.40257
 11
-16.6996
 21
-5.2308
  0
LINE
  8
0
 10
-16.6996
 20
-5.2308
 11
-17.3418
 21
-4.97655
  0
LINE
  8
0
 10
-17.3418
 20
-4.97655
 11
-17.947
 21
-4.6438
  0
LINE
  8
0
 10
-17.947
 20
-4.6438
 11
-18.5058
 21
-4.23781
  0
LINE
  8
0
 10
-18.5058
 20
-4.23781
 11
-19.0093
 21
-3.765
  0
LINE
  8
0
 10
-19.0093
 20
-3.765
 11
-19.4496
 21
-3.23282
  0
LINE
  8
0
 10
-19.4496
 20
-3.23282
 11
-19.8197
 21
-2.64964
  0
LINE
  8
0
 10
-19.8197
 20
-2.64964
 11
-20.1138
 21
-2.02467
  0
LINE
  8
0
 10
-20.1138
 20
-2.02467
 11
-20.3272
 21
-1.36778
  0
LINE
  8
0
 10
-20.3272
 20
-1.36778
 11
-20.4566
 21
-0.689331
  0
LINE
  8
0
 10
-20.4566
 20
-0.689331
 11
-20.5
 21
0
  0
LINE
  8
0
 10
-20.5
 20
0
 11
-20.4566
 21
0.689331
  0
LINE
  8
0
 10
-20.4566
 20
0.689331
 11
-20.3272
 21
1.36778
  0
LINE
  8
0
 10
-20.3272
 20
1.36778
 11
-20.1138
 21
2.02467
  0
LINE
  8
0
 10
-20.1138
 20
2.02467
 11
-19.8197
 21
2.64964
  0
LINE
  8
0
 10
-19.8197
 20
2.64964
 11
-19.4496
 21
3.23282
  0
LINE
  8
0
 10
-19.4496
 20
3.23282
 11
-19.0093
 21
3.765
  0
LINE
  8
0
 10
-19.0093
 20
3.765
 11
-18.5058
 21
4.23781
  0
LINE
  8
0
 10
-18.5058
 20
4.23781
 11
-17.947
 21
4.6438
  0
LINE
  8
0
 10
-17.947
 20
4.6438
 11
-17.3418
 21
4.97655
  0
LINE
  8
0
 10
-17.3418
 20
4.97655
 11
-16.6996
 21
5.2308
  0
LINE
  8
0
 10
-16.6996
 20
5.2308
 11
-16.0306
 21
5.40257
  0
LINE
  8
0
 10
-16.0306
 20
5.40257
 11
-15.3453
 21
5.48914
  0
LINE
  8
0
 10
-15.3453
 20
5.48914
 11
-14.6546
 21
5.48914
  0
LINE
  8
0
 10
-14.6546
 20
5.48914
 11
-13.9694
 21
5.40257
  0
LINE
  8
0
 10
-13.9694
 20
5.40257
 11
-13.3004
 21
5.2308
  0
LINE
  8
0
 10
-13.3004
 20
5.2308
 11
-12.6582
 21
4.97655
  0
LINE
  8
0
 10
-12.6582
 20
4.97655
 11
-12.0529
 21
4.6438
  0
LINE
  8
0
 10
-12.0529
 20
4.6438
 11
-11.4942
 21
4.23781
  0
LINE
  8
0
 10
-11.4942
 20
4.23781
 11
-10.9907
 21
3.765
  0
LINE
  8
0
 10
-10.9907
 20
3.765
 11
-10.5504
 21
3.23282
  0
LINE
  8
0
 10
-10.5504
 20
3.23282
 11
-10.1803
 21
2.64964
  0
LINE
  8
0
 10
-10.1803
 20
2.64964
 11
-9.88622
 21
2.02467
  0
LINE
  8
0
 10
-9.88622
 20
2.02467
 11
-9.67279
 21
1.36778
  0
LINE
  8
0
 10
-9.67279
 20
1.36778
 11
-9.54337
 21
0.689331
  0
LINE
  8
0
 10
-9.54337
 20
0.689331
 11
-9.5
 21
0
  0
LINE
  8
0
 10
-9.5
 20
0
 11
-9.54337
 21
-0.689331
  0
LINE
  8
0
 10
-9.54337
 20
-0.689331
 11
-9.67279
 21
-1.36778
  0
LINE
  8
0
 10
-9.67279
 20
-1.36778
 11
-9.88622
 21
-2.02467
  0
LINE
  8
0
 10
-9.88622
 20
-2.02467
 11
-10.1803
 21
-2.64964
  0
LINE
  8
0
 10
-10.1803
 20
-2.64964
 11
-10.5504
 21
-3.23282
  0
LINE
  8
0
 10
-10.5504
 20
-3.23282
 11
-10.9907
 21
-3.765
  0
LINE
  8
0
 10
-10.9907
 20
-3.765
 11
-11.4942
 21
-4.23781
  0
LINE
  8
0
 10
-11.4942
 20
-4.23781
 11
-12.0529
 21
-4.6438
  0
LINE
  8
0
 10
-12.0529
 20
-4.6438
 11
-12.6582
 21
-4.97655
  0
LINE
  8
0
 10
-12.6582
 20
-4.97655
 11
-13.3004
 21
-5.2308
  0
LINE
  8
0
 10
-13.3004
 20
-5.2308
 11
-13.9694
 21
-5.40257
  0
LINE
  8
0
 10
-13.9694
 20
-5.40257
 11
-14.6546
 21
-5.48914
  0
LINE
  8
0
 10
-14.6546
 20
-5.48914
 11
-15.3453
 21
-5.48914
  0
LINE
  8
0
 10
-15.3453
 20
-20.4891
 11
-16.0306
 21
-20.4026
  0
LINE
  8
0
 10
-16.0306
 20
-20.4026
 11
-16.6996
 21
-20.2308
  0
LINE
  8
0
 10
-16.6996
 20
-20.2308
 11
-17.3418
 21
-19.9765
  0
LINE
  8
0
 10
-17.3418
 20
-19.9765
 11
-17.947
 21
-19.6438
  0
LINE
  8
0
 10
-17.947
 20
-19.6438
 11
-18.5058
 21
-19.2378
  0
LINE
  8
0
 10
-18.5058
 20
-19.2378
 11
-19.0093
 21
-18.765
  0
LINE
  8
0
 10
-19.0093
 20
-18.765
 11
-19.4496
 21
-18.2328
  0
LINE
  8
0
 10
-19.4496
 20
-18.2328
 11
-19.8197
 21
-17.6496
  0
LINE
  8
0
 10
-19.8197
 20
-17.6496
 11
-20.1138
 21
-17.0247
  0
LINE
  8
0
 10
-20.1138
 20
-17.0247
 11
-20.3272
 21
-16.3678
  0
LINE
  8
0
 10
-20.3272
 20
-16.3678
 11
-20.4566
 21
-15.6893
  0
LINE
  8
0
 10
-20.4566
 20
-15.6893
 11
-20.5
 21
-15
  0
LINE
  8
0
 10
-20.5
 20
-15
 11
-20.4566
 21
-14.3107
  0
LINE
  8
0
 10
-20.4566
 20
-14.3107
 11
-20.3272
 21
-13.6322
  0
LINE
  8
0
 10
-20.3272
 20
-13.6322
 11
-20.1138
 21
-12.9753
  0
LINE
  8
0
 10
-20.1138
 20
-12.9753
 11
-19.8197
 21
-12.3503
  0
LINE
  8
0
 10
-19.8197
 20
-12.3503
 11
-19.4496
 21
-11.7672
  0
LINE
  8
0
 10
-19.4496
 20
-11.7672
 11
-19.0093
 21
-11.235
  0
LINE
  8
0
 10
-19.0093
 20
-11.235
 11
-18.5058
 21
-10.7622
  0
LINE
  8
0
 10
-18.5058
 20
-10.7622
 11
-17.947
 21
-10.3562
  0
LINE
  8
0
 10
-17.947
 20
-10.3562
 11
-17.3418
 21
-10.0234
  0
LINE
  8
0
 10
-17.3418
 20
-10.0234
 11
-16.6996
 21
-9.76918
  0
LINE
  8
0
 10
-16.6996
 20
-9.76918
 11
-16.0306
 21
-9.59741
  0
LINE
  8
0
 10
-16.0306
 20
-9.59741
 11
-15.3453
 21
-9.51085
  0
LINE
  8
0
 10
-15.3453
 20
-9.51085
 11
-14.6546
 21
-9.51085
  0
LINE
  8
0
 10
-14.6546
 20
-9.51085
 11
-13.9694
 21
-9.59741
  0
LINE
  8
0
 10
-13.9694
 20
-9.59741
 11
-13.3004
 21
-9.76918
  0
LINE
  8
0
 10
-13.3004
 20
-9.76918
 11
-12.6582
 21
-10.0234
  0
LINE
  8
0
 10
-12.6582
 20
-10.0234
 11
-12.0529
 21
-10.3562
  0
LINE
  8
0
 10
-12.0529
 20
-10.3562
 11
-11.4942
 21
-10.7622
  0
LINE
  8
0
 10
-11.4942
 20
-10.7622
 11
-10.9907
 21
-11.235
  0
LINE
  8
0
 10
-10.9907
 20
-11.235
 11
-10.5504
 21
-11.7672
  0
LINE
  8
0
 10
-10.5504
 20
-11.7672
 11
-10.1803
 21
-12.3503
  0
LINE
  8
0
 10
-10.1803
 20
-12.3503
 11
-9.88622
 21
-12.9753
  0
LINE
  8
0
 10
-9.88622
 20
-12.9753
 11
-9.67279
 21
-13.6322
  0
LINE
  8
0
 10
-9.67279
 20
-13.6322
 11
-9.54337
 21
-14.3107
  0
LINE
  8
0
 10
-9.54337
 20
-14.3107
 11
-9.5
 21
-15
  0
LINE
  8
0
 10
-9.5
 20
-15
 11
-9.54337
 21
-15.6893
  0
LINE
  8
0
 10
-9.54337
 20
-15.6893
 11
-9.67279
 21
-16.3678
  0
LINE
  8
0
 10
-9.67279
 20
-16.3678
 11
-9.88622
 21
-17.0247
  0
LINE
  8
0
 10
-9.88622
 20
-17.0247
 11
-10.1803
 21
-17.6496
  0
LINE
  8
0
 10
-10.1803
 20
-17.6496
 11
-10.5504
 21
-18.2328
  0
LINE
  8
0
 10
-10.5504
 20
-18.2328
 11
-10.9907
 21
-18.765
  0
LINE
  8
0
 10
-10.9907
 20
-18.765
 11
-11.4942
 21
-19.2378
  0
LINE
  8
0
 10
-11.4942
 20
-19.2378
 11
-12.0529
 21
-19.6438
  0
LINE
  8
0
 10
-12.0529
 20
-19.6438
 11
-12.6582
 21
-19.9765
  0
LINE
  8
0
 10
-12.6582
 20
-19.9765
 11
-13.3004
 21
-20.2308
  0
LINE
  8
0
 10
-13.3004
 20
-20.2308
 11
-13.9694
 21
-20.4026
  0
LINE
  8
0
 10
-13.9694
 20
-20.4026
 11
-14.6546
 21
-20.4891
  0
LINE
  8
0
 10
-14.6546
 20
-20.4891
 11
-15.3453
 21
-20.4891
  0
LINE
  8
0
 10
14.6546
 20
-20.4891
 11
13.9694
 21
-20.4026
  0
LINE
  8
0
 10
13.9694
 20
-20.4026
 11
13.3004
 21
-20.2308
  0
LINE
  8
0
 10
13.3004
 20
-20.2308
 11
12.6582
 21
-19.9765
  0
LINE
  8
0
 10
12.6582
 20
-19.9765
 11
12.0529
 21
-19.6438
  0
LINE
  8
0
 10
12.0529
 20
-19.6438
 11
11.4942
 21
-19.2378
  0
LINE
  8
0
 10
11.4942
 20
-19.2378
 11
10.9907
 21
-18.765
  0
LINE
  8
0
 10
10.9907
 20
-18.765
 11
10.5504
 21
-18.2328
  0
LINE
  8
0
 10
10.5504
 20
-18.2328
 11
10.1803
 21
-17.6496
  0
LINE
  8
0
 10
10.1803
 20
-17.6496
 11
9.88622
 21
-17.0247
  0
LINE
  8
0
 10
9.88622
 20
-17.0247
 11
9.67279
 21
-16.3678
  0
LINE
  8
0
 10
9.67279
 20
-16.3678
 11
9.54337
 21
-15.6893
  0
LINE
  8
0
 10
9.54337
 20
-15.6893
 11
9.5
 21
-15
  0
LINE
  8
0
 10
9.5
 20
-15
 11
9.54337
 21
-14.3107
  0
LINE
  8
0
 10
9.54337
 20
-14.3107
 11
9.67279
 21
-13.6322
  0
LINE
  8
0
 10
9.67279
 20
-13.6322
 11
9.88622
 21
-12.9753
  0
LINE
  8
0
 10
9.88622
 20
-12.9753
 11
10.1803
 21
-12.3503
  0
LINE
  8
0
 10
10.1803
 20
-12.3503
 11
10.5504
 21
-11.7672
  0
LINE
  8
0
 10
10.5504
 20
-11.7672
 11
10.9907
 21
-11.235
  0
LINE
  8
0
 10
10.9907
 20
-11.235
 11
11.4942
 21
-10.7622
  0
LINE
  8
0
 10
11.4942
 20
-10.7622
 11
12.0529
 21
-10.3562
  0
LINE
  8
0
 10
12.0529
 20
-10.3562
 11
12.6582
 21
-10.0234
  0
LINE
  8
0
 10
12.6582
 20
-10.0234
 11
13.3004
 21
-9.76918
  0
LINE
  8
0
 10
13.3004
 20
-9.76918
 11
13.9694
 21
-9.59741
  0
LINE
  8
0
 10
13.9694
 20
-9.59741
 11
14.6546
 21
-9.51085
  0
LINE
  8
0
 10
14.6546
 20
-9.51085
 11
15.3453
 21
-9.51085
  0
LINE
  8
0
 10
15.3453
 20
-9.51085
 11
16.0306
 21
-9.59741
  0
LINE
  8
0
 10
16.0306
 20
-9.59741
 11
16.6996
 21
-9.76918
  0
LINE
  8
0
 10
16.6996
 20
-9.76918
 11
17.3418
 21
-10.0234
  0
LINE
  8
0
 10
17.3418
 20
-10.0234
 11
17.947
 21
-10.3562
  0
LINE
  8
0
 10
17.947
 20
-10.3562
 11
18.5058
 21
-10.7622
  0
LINE
  8
0
 10
18.5058
 20
-10.7622
 11
19.0093
 21
-11.235
  0
LINE
  8
0
 10
19.0093
 20
-11.235
 11
19.4496
 21
-11.7672
  0
LINE
  8
0
 10
19.4496
 20
-11.7672
 11
19.8197
 21
-12.3503
  0
LINE
  8
0
 10
19.8197
 20
-12.3503
 11
20.1138
 21
-12.9753
  0
LINE
  8
0
 10
20.1138
 20
-12.9753
 11
20.3272
 21
-13.6322
  0
LINE
  8
0
 10
20.3272
 20
-13.6322
 11
20.4566
 21
-14.3107
  0
LINE
  8
0
 10
20.4566
 20
-14.3107
 11
20.5
 21
-15
  0
LINE
  8
0
 10
20.5
 20
-15
 11
20.4566
 21
-15.6893
  0
LINE
  8
0
 10
20.4566
 20
-15.6893
 11
20.3272
 21
-16.3678
  0
LINE
  8
0
 10
20.3272
 20
-16.3678
 11
20.1138
 21
-17.0247
  0
LINE
  8
0
 10
20.1138
 20
-17.0247
 11
19.8197
 21
-17.6496
  0
LINE
  8
0
 10
19.8197
 20
-17.6496
 11
19.4496
 21
-18.2328
  0
LINE
  8
0
 10
19.4496
 20
-18.2328
 11
19.0093
 21
-18.765
  0
LINE
  8
0
 10
19.0093
 20
-18.765
 11
18.5058
 21
-19.2378
  0
LINE
  8
0
 10
18.5058
 20
-19.2378
 11
17.947
 21
-19.6438
  0
LINE
  8
0
 10
17.947
 20
-19.6438
 11
17.3418
 21
-19.9765
  0
LINE
  8
0
 10
17.3418
 20
-19.9765
 11
16.6996
 21
-20.2308
  0
LINE
  8
0
 10
16.6996
 20
-20.2308
 11
16.0306
 21
-20.4026
  0
LINE
  8
0
 10
16.0306
 20
-20.4026
 11
15.3453
 21
-20.4891
  0
LINE
  8
0
 10
15.3453
 20
-20.4891
 11
14.6546
 21
-20.4891
  0
LINE
  8
0
 10
-0.345337
 20
-20.4891
 11
-1.03059
 21
-20.4026
  0
LINE
  8
0
 10
-1.03059
 20
-20.4026
 11
-1.69958
 21
-20.2308
  0
LINE
  8
0
 10
-1.69958
 20
-20.2308
 11
-2.34178
 21
-19.9765
  0
LINE
  8
0
 10
-2.34178
 20
-19.9765
 11
-2.94704
 21
-19.6438
  0
LINE
  8
0
 10
-2.94704
 20
-19.6438
 11
-3.50583
 21
-19.2378
  0
LINE
  8
0
 10
-3.50583
 20
-19.2378
 11
-4.00932
 21
-18.765
  0
LINE
  8
0
 10
-4.00932
 20
-18.765
 11
-4.44958
 21
-18.2328
  0
LINE
  8
0
 10
-4.44958
 20
-18.2328
 11
-4.81967
 21
-17.6496
  0
LINE
  8
0
 10
-4.81967
 20
-17.6496
 11
-5.11377
 21
-17.0247
  0
LINE
  8
0
 10
-5.11377
 20
-17.0247
 11
-5.32719
 21
-16.3678
  0
LINE
  8
0
 10
-5.32719
 20
-16.3678
 11
-5.45662
 21
-15.6893
  0
LINE
  8
0
 10
-5.45662
 20
-15.6893
 11
-5.5
 21
-15
  0
LINE
  8
0
 10
-5.5
 20
-15
 11
-5.45662
 21
-14.3107
  0
LINE
  8
0
 10
-5.45662
 20
-14.3107
 11
-5.32719
 21
-13.6322
  0
LINE
  8
0
 10
-5.32719
 20
-13.6322
 11
-5.11377
 21
-12.9753
  0
LINE
  8
0
 10
-5.11377
 20
-12.9753
 11
-4.81967
 21
-12.3503
  0
LINE
  8
0
 10
-4.81967
 20
-12.3503
 11
-4.44958
 21
-11.7672
  0
LINE
  8
0
 10
-4.44958
 20
-11.7672
 11
-4.00932
 21
-11.235
  0
LINE
  8
0
 10
-4.00932
 20
-11.235
 11
-3.50583
 21
-10.7622
  0
LINE
  8
0
 10
-3.50583
 20
-10.7622
 11
-2.94704
 21
-10.3562
  0
LINE
  8
0
 10
-2.94704
 20
-10.3562
 11
-2.34178
 21
-10.0234
  0
LINE
  8
0
 10
-2.34178
 20
-10.0234
 11
-1.69958
 21
-9.76918
  0
LINE
  8
0
 10
-1.69958
 20
-9.76918
 11
-1.03059
 21
-9.59741
  0
LINE
  8
0
 10
-1.03059
 20
-9.59741
 11
-0.345337
 21
-9.51085
  0
LINE
  8
0
 10
-0.345337
 20
-9.51085
 11
0.345337
 21
-9.51085
  0
LINE
  8
0
 10
0.345337
 20
-9.51085
 11
1.03059
 21
-9.59741
  0
LINE
  8
0
 10
1.03059
 20
-9.59741
 11
1.69958
 21
-9.76918
  0
LINE
  8
0
 10
1.69958
 20
-9.76918
 11
2.34178
 21
-10.0234
  0
LINE
  8
0
 10
2.34178
 20
-10.0234
 11
2.94704
 21
-10.3562
  0
LINE
  8
0
 10
2.94704
 20
-10.3562
 11
3.50583
 21
-10.7622
  0
LINE
  8
0
 10
3.50583
 20
-10.7622
 11
4.00932
 21
-11.235
  0
LINE
  8
0
 10
4.00932
 20
-11.235
 11
4.44958
 21
-11.7672
  0
LINE
  8
0
 10
4.44958
 20
-11.7672
 11
4.81967
 21
-12.3503
  0
LINE
  8
0
 10
4.81967
 20
-12.3503
 11
5.11377
 21
-12.9753
  0
LINE
  8
0
 10
5.11377
 20
-12.9753
 11
5.32719
 21
-13.6322
  0
LINE
  8
0
 10
5.32719
 20
-13.6322
 11
5.45662
 21
-14.3107
  0
LINE
  8
0
 10
5.45662
 20
-14.3107
 11
5.5
 21
-15
  0
LINE
  8
0
 10
5.5
 20
-15
 11
5.45662
 21
-15.6893
  0
LINE
  8
0
 10
5.45662
 20
-15.6893
 11
5.32719
 21
-16.3678
  0
LINE
  8
0
 10
5.32719
 20
-16.3678
 11
5.11377
 21
-17.0247
  0
LINE
  8
0
 10
5.11377
 20
-17.0247
 11
4.81967
 21
-17.6496
  0
LINE
  8
0
 10
4.81967
 20
-17.6496
 11
4.44958
 21
-18.2328
  0
LINE
  8
0
 10
4.44958
 20
-18.2328
 11
4.00932
 21
-18.765
  0
LINE
  8
0
 10
4.00932
 20
-18.765
 11
3.50583
 21
-19.2378
  0
LINE
  8
0
 10
3.50583
 20
-19.2378
 11
2.94704
 21
-19.6438
  0
LINE
  8
0
 10
2.94704
 20
-19.6438
 11
2.34178
 21
-19.9765
  0
LINE
  8
0
 10
2.34178
 20
-19.9765
 11
1.69958
 21
-20.2308
  0
LINE
  8
0
 10
1.69958
 20
-20.2308
 11
1.03059
 21
-20.4026
  0
LINE
  8
0
 10
1.03059
 20
-20.4026
 11
0.345337
 21
-20.4891
  0
LINE
  8
0
 10
0.345337
 20
-20.4891
 11
-0.345337
 21
-20.4891
  0
LINE
  8
0
 10
-12.0529
 20
10.3562
 11
-12.6582
 21
10.0234
  0
LINE
  8
0
 10
-12.6582
 20
10.0234
 11
-13.3004
 21
9.76918
  0
LINE
  8
0
 10
-13.3004
 20
9.76918
 11
-13.9694
 21
9.59741
  0
LINE
  8
0
 10
-13.9694
 20
9.59741
 11
-14.6546
 21
9.51085
  0
LINE
  8
0
 10
-14.6546
 20
9.51085
 11
-15.3453
 21
9.51085
  0
LINE
  8
0
 10
-15.3453
 20
9.51085
 11
-16.0306
 21
9.59741
  0
LINE
  8
0
 10
-16.0306
 20
9.59741
 11
-16.6996
 21
9.76918
  0
LINE
  8
0
 10
-16.6996
 20
9.76918
 11
-17.3418
 21
10.0234
  0
LINE
  8
0
 10
-17.3418
 20
10.0234
 11
-17.947
 21
10.3562
  0
LINE
  8
0
 10
-17.947
 20
10.3562
 11
-18.5058
 21
10.7622
  0
LINE
  8
0
 10
-18.5058
 20
10.7622
 11
-19.0093
 21
11.235
  0
LINE
  8
0
 10
-19.0093
 20
11.235
 11
-19.4496
 21
11.7672
  0
LINE
  8
0
 10
-19.4496
 20
11.7672
 11
-19.8197
 21
12.3503
  0
LINE
  8
0
 10
-19.8197
 20
12.3503
 11
-20.1138
 21
12.9753
  0
LINE
  8
0
 10
-20.1138
 20
12.9753
 11
-20.3272
 21
13.6322
  0
LINE
  8
0
 10
-20.3272
 20
13.6322
 11
-20.4566
 21
14.3107
  0
LINE
  8
0
 10
-20.4566
 20
14.3107
 11
-20.5
 21
15
  0
LINE
  8
0
 10
-20.5
 20
15
 11
-20.4566
 21
15.6893
  0
LINE
  8
0
 10
-20.4566
 20
15.6893
 11
-20.3272
 21
16.3678
  0
LINE
  8
0
 10
-20.3272
 20
16.3678
 11
-20.1138
 21
17.0247
  0
LINE
  8
0
 10
-20.1138
 20
17.0247
 11
-19.8197
 21
17.6496
  0
LINE
  8
0
 10
-19.8197
 20
17.6496
 11
-19.4496
 21
18.2328
  0
LINE
  8
0
 10
-19.4496
 20
18.2328
 11
-19.0093
 21
18.765
  0
LINE
  8
0
 10
-19.0093
 20
18.765
 11
-18.5058
 21
19.2378
  0
LINE
  8
0
 10
-18.5058
 20
19.2378
 11
-17.947
 21
19.6438
  0
LINE
  8
0
 10
-17.947
 20
19.6438
 11
-17.3418
 21
19.9765
  0
LINE
  8
0
 10
-17.3418
 20
19.9765
 11
-16.6996
 21
20.2308
  0
LINE
  8
0
 10
-16.6996
 20
20.2308
 11
-16.0306
 21
20.4026
  0
LINE
  8
0
 10
-16.0306
 20
20.4026
 11
-15.3453
 21
20.4891
  0
LINE
  8
0
 10
-15.3453
 20
20.4891
 11
-14.6546
 21
20.4891
  0
LINE
  8
0
 10
-14.6546
 20
20.4891
 11
-13.9694
 21
20.4026
  0
LINE
  8
0
 10
-13.9694
 20
20.4026
 11
-13.3004
 21
20.2308
  0
LINE
  8
0
 10
-13.3004
 20
20.2308
 11
-12.6582
 21
19.9765
  0
LINE
  8
0
 10
-12.6582
 20
19.9765
 11
-12.0529
 21
19.6438
  0
LINE
  8
0
 10
-12.0529
 20
19.6438
 11
-11.4942
 21
19.2378
  0
LINE
  8
0
 10
-11.4942
 20
19.2378
 11
-10.9907
 21
18.765
  0
LINE
  8
0
 10
-10.9907
 20
18.765
 11
-10.5504
 21
18.2328
  0
LINE
  8
0
 10
-10.5504
 20
18.2328
 11
-10.1803
 21
17.6496
  0
LINE
  8
0
 10
-10.1803
 20
17.6496
 11
-9.88622
 21
17.0247
  0
LINE
  8
0
 10
-9.88622
 20
17.0247
 11
-9.67279
 21
16.3678
  0
LINE
  8
0
 10
-9.67279
 20
16.3678
 11
-9.54337
 21
15.6893
  0
LINE
  8
0
 10
-9.54337
 20
15.6893
 11
-9.5
 21
15
  0
LINE
  8
0
 10
-9.5
 20
15
 11
-9.54337
 21
14.3107
  0
LINE
  8
0
 10
-9.54337
 20
14.3107
 11
-9.67279
 21
13.6322
  0
LINE
  8
0
 10
-9.67279
 20
13.6322
 11
-9.88622
 21
12.9753
  0
LINE
  8
0
 10
-9.88622
 20
12.9753
 11
-10.1803
 21
12.3503
  0
LINE
  8
0
 10
-10.1803
 20
12.3503
 11
-10.5504
 21
11.7672
  0
LINE
  8
0
 10
-10.5504
 20
11.7672
 11
-10.9907
 21
11.235
  0
LINE
  8
0
 10
-10.9907
 20
11.235
 11
-11.4942
 21
10.7622
  0
LINE
  8
0
 10
-11.4942
 20
10.7622
 11
-12.0529
 21
10.3562
  0
ENDSEC
  0
SECTION
  2
OBJECTS
  0
DICTIONARY
  0
ENDSEC
  0
EOF
